<svg width="196" height="196" viewBox="0 0 196 196" fill="none" xmlns="http://www.w3.org/2000/svg">
<circle opacity="0.8" cx="98" cy="98" r="47.5" stroke="white"/>
<circle opacity="0.6" cx="98" cy="98" r="66.5" stroke="white"/>
<circle opacity="0.27" cx="98" cy="98" r="97.5" stroke="white"/>
<path d="M90.8178 87.6V86.32H96.0178C96.0178 87.0987 95.9005 87.84 95.6658 88.544C95.4311 89.2373 95.0845 89.856 94.6258 90.4C94.1671 90.944 93.6018 91.376 92.9298 91.696C92.2685 92.0053 91.5111 92.16 90.6578 92.16C89.8471 92.16 89.0951 92.0213 88.4018 91.744C87.7085 91.456 87.1058 91.056 86.5938 90.544C86.0818 90.0213 85.6818 89.408 85.3938 88.704C85.1165 88 84.9778 87.232 84.9778 86.4C84.9778 85.568 85.1165 84.8 85.3938 84.096C85.6818 83.392 86.0818 82.784 86.5938 82.272C87.1058 81.7493 87.7085 81.3493 88.4018 81.072C89.0951 80.784 89.8471 80.64 90.6578 80.64C91.3511 80.64 91.9858 80.7307 92.5618 80.912C93.1485 81.0933 93.6711 81.36 94.1298 81.712C94.5991 82.064 94.9938 82.5013 95.3138 83.024L94.3538 83.904C94.0018 83.3067 93.5111 82.8427 92.8818 82.512C92.2525 82.1707 91.5111 82 90.6578 82C89.8685 82 89.1538 82.1867 88.5138 82.56C87.8738 82.9333 87.3618 83.4507 86.9778 84.112C86.6045 84.7627 86.4178 85.5253 86.4178 86.4C86.4178 87.264 86.6045 88.0267 86.9778 88.688C87.3618 89.3493 87.8738 89.8667 88.5138 90.24C89.1538 90.6133 89.8685 90.8 90.6578 90.8C91.2125 90.8 91.7085 90.72 92.1458 90.56C92.5938 90.3893 92.9778 90.1547 93.2978 89.856C93.6178 89.5573 93.8791 89.216 94.0818 88.832C94.2951 88.448 94.4498 88.0373 94.5458 87.6H90.8178ZM102.712 92.16C102.029 92.16 101.421 92 100.888 91.68C100.365 91.3493 99.9547 90.896 99.6561 90.32C99.3681 89.744 99.2241 89.0773 99.2241 88.32C99.2241 87.552 99.3734 86.88 99.6721 86.304C99.9814 85.728 100.408 85.28 100.952 84.96C101.507 84.64 102.147 84.48 102.872 84.48C103.597 84.48 104.216 84.6347 104.728 84.944C105.251 85.2427 105.651 85.6747 105.928 86.24C106.205 86.8053 106.344 87.4773 106.344 88.256C106.344 88.3307 106.339 88.4107 106.328 88.496C106.328 88.5707 106.328 88.6187 106.328 88.64H100.04V87.552H105.32L104.808 88.288C104.84 88.2347 104.872 88.1547 104.904 88.048C104.936 87.9307 104.952 87.8347 104.952 87.76C104.952 87.3227 104.861 86.944 104.68 86.624C104.509 86.304 104.269 86.0533 103.96 85.872C103.651 85.6907 103.288 85.6 102.872 85.6C102.381 85.6 101.96 85.7067 101.608 85.92C101.267 86.1227 101 86.4213 100.808 86.816C100.627 87.2 100.531 87.6747 100.52 88.24C100.52 88.816 100.611 89.3067 100.792 89.712C100.973 90.1173 101.24 90.4267 101.592 90.64C101.944 90.8533 102.371 90.96 102.872 90.96C103.373 90.96 103.816 90.8533 104.2 90.64C104.584 90.416 104.909 90.08 105.176 89.632L106.216 90.288C105.832 90.9067 105.347 91.376 104.76 91.696C104.184 92.0053 103.501 92.16 102.712 92.16ZM108.898 84.64H112.578V85.84H108.898V84.64ZM110.098 82.08H111.378V92H110.098V82.08ZM70.936 112.608C71.192 113.056 71.4587 113.451 71.736 113.792C72.024 114.133 72.344 114.4 72.696 114.592C73.048 114.784 73.448 114.88 73.896 114.88C74.4933 114.88 74.9733 114.715 75.336 114.384C75.6987 114.053 75.88 113.632 75.88 113.12C75.88 112.619 75.7627 112.219 75.528 111.92C75.2933 111.621 74.984 111.381 74.6 111.2C74.2267 111.008 73.8267 110.837 73.4 110.688C73.1227 110.592 72.8133 110.469 72.472 110.32C72.1307 110.16 71.8053 109.963 71.496 109.728C71.1867 109.483 70.9307 109.184 70.728 108.832C70.536 108.48 70.44 108.048 70.44 107.536C70.44 106.981 70.5787 106.485 70.856 106.048C71.1333 105.611 71.5173 105.269 72.008 105.024C72.4987 104.768 73.0587 104.64 73.688 104.64C74.296 104.64 74.824 104.757 75.272 104.992C75.7307 105.216 76.12 105.509 76.44 105.872C76.76 106.224 77.0107 106.597 77.192 106.992L76.024 107.664C75.8853 107.387 75.7093 107.115 75.496 106.848C75.2827 106.581 75.0213 106.363 74.712 106.192C74.4133 106.021 74.0453 105.936 73.608 105.936C73 105.936 72.5573 106.085 72.28 106.384C72.0027 106.672 71.864 106.997 71.864 107.36C71.864 107.669 71.944 107.957 72.104 108.224C72.264 108.48 72.5307 108.725 72.904 108.96C73.288 109.184 73.8053 109.408 74.456 109.632C74.7547 109.739 75.0693 109.877 75.4 110.048C75.7307 110.219 76.0347 110.437 76.312 110.704C76.6 110.96 76.8347 111.275 77.016 111.648C77.1973 112.011 77.288 112.448 77.288 112.96C77.288 113.451 77.192 113.893 77 114.288C76.8187 114.683 76.5627 115.019 76.232 115.296C75.912 115.573 75.544 115.787 75.128 115.936C74.7227 116.085 74.296 116.16 73.848 116.16C73.24 116.16 72.6747 116.032 72.152 115.776C71.64 115.509 71.1867 115.163 70.792 114.736C70.408 114.299 70.0933 113.835 69.848 113.344L70.936 112.608ZM80.0056 108.64H83.6856V109.84H80.0056V108.64ZM81.2056 106.08H82.4856V116H81.2056V106.08ZM87.4654 113.728C87.4654 114.005 87.5294 114.245 87.6574 114.448C87.796 114.651 87.9827 114.805 88.2174 114.912C88.4627 115.008 88.74 115.056 89.0494 115.056C89.444 115.056 89.796 114.976 90.1054 114.816C90.4254 114.656 90.676 114.432 90.8574 114.144C91.0494 113.845 91.1454 113.504 91.1454 113.12L91.4014 114.08C91.4014 114.549 91.2574 114.939 90.9694 115.248C90.692 115.557 90.3454 115.787 89.9294 115.936C89.524 116.085 89.1187 116.16 88.7134 116.16C88.2654 116.16 87.844 116.069 87.4494 115.888C87.0654 115.696 86.756 115.424 86.5214 115.072C86.2867 114.72 86.1694 114.293 86.1694 113.792C86.1694 113.077 86.42 112.507 86.9214 112.08C87.4334 111.643 88.1427 111.424 89.0494 111.424C89.5827 111.424 90.0254 111.488 90.3774 111.616C90.74 111.733 91.028 111.872 91.2414 112.032C91.4547 112.181 91.5987 112.304 91.6734 112.4V113.152C91.3 112.896 90.916 112.715 90.5214 112.608C90.1267 112.491 89.7054 112.432 89.2574 112.432C88.8414 112.432 88.5 112.485 88.2334 112.592C87.9774 112.699 87.7854 112.848 87.6574 113.04C87.5294 113.232 87.4654 113.461 87.4654 113.728ZM87.2734 110.336L86.6494 109.392C86.9267 109.189 87.3054 108.987 87.7854 108.784C88.276 108.581 88.8627 108.48 89.5454 108.48C90.1214 108.48 90.6227 108.571 91.0494 108.752C91.4867 108.923 91.8227 109.173 92.0574 109.504C92.3027 109.835 92.4254 110.24 92.4254 110.72V116H91.1454V110.896C91.1454 110.64 91.1027 110.432 91.0174 110.272C90.932 110.101 90.8094 109.968 90.6494 109.872C90.5 109.776 90.324 109.707 90.1214 109.664C89.9187 109.621 89.7054 109.6 89.4814 109.6C89.1187 109.6 88.788 109.643 88.4894 109.728C88.2014 109.813 87.956 109.915 87.7534 110.032C87.5507 110.149 87.3907 110.251 87.2734 110.336ZM97.7925 108.64V116H96.5125V108.64H97.7925ZM100.016 110.048C99.8458 109.92 99.6912 109.829 99.5525 109.776C99.4138 109.712 99.2378 109.68 99.0245 109.68C98.7045 109.68 98.4538 109.76 98.2725 109.92C98.0912 110.08 97.9632 110.299 97.8885 110.576C97.8245 110.853 97.7925 111.168 97.7925 111.52H97.2165C97.2165 110.933 97.3178 110.416 97.5205 109.968C97.7338 109.509 98.0058 109.147 98.3365 108.88C98.6672 108.613 99.0032 108.48 99.3445 108.48C99.6112 108.48 99.8565 108.517 100.081 108.592C100.315 108.656 100.529 108.789 100.721 108.992L100.016 110.048ZM102.797 108.64H106.477V109.84H102.797V108.64ZM103.997 106.08H105.277V116H103.997V106.08ZM112.529 116.16C111.846 116.16 111.238 116 110.705 115.68C110.182 115.349 109.771 114.896 109.473 114.32C109.185 113.744 109.041 113.077 109.041 112.32C109.041 111.552 109.19 110.88 109.489 110.304C109.798 109.728 110.225 109.28 110.769 108.96C111.323 108.64 111.963 108.48 112.689 108.48C113.414 108.48 114.033 108.635 114.545 108.944C115.067 109.243 115.467 109.675 115.745 110.24C116.022 110.805 116.161 111.477 116.161 112.256C116.161 112.331 116.155 112.411 116.145 112.496C116.145 112.571 116.145 112.619 116.145 112.64H109.857V111.552H115.137L114.625 112.288C114.657 112.235 114.689 112.155 114.721 112.048C114.753 111.931 114.769 111.835 114.769 111.76C114.769 111.323 114.678 110.944 114.497 110.624C114.326 110.304 114.086 110.053 113.777 109.872C113.467 109.691 113.105 109.6 112.689 109.6C112.198 109.6 111.777 109.707 111.425 109.92C111.083 110.123 110.817 110.421 110.625 110.816C110.443 111.2 110.347 111.675 110.337 112.24C110.337 112.816 110.427 113.307 110.609 113.712C110.79 114.117 111.057 114.427 111.409 114.64C111.761 114.853 112.187 114.96 112.689 114.96C113.19 114.96 113.633 114.853 114.017 114.64C114.401 114.416 114.726 114.08 114.993 113.632L116.033 114.288C115.649 114.907 115.163 115.376 114.577 115.696C114.001 116.005 113.318 116.16 112.529 116.16ZM125.355 103.52H126.635V116H125.355V103.52ZM119.195 112.32C119.195 111.52 119.36 110.837 119.691 110.272C120.022 109.696 120.464 109.253 121.019 108.944C121.574 108.635 122.182 108.48 122.843 108.48C123.462 108.48 124 108.635 124.459 108.944C124.918 109.253 125.275 109.696 125.531 110.272C125.798 110.837 125.931 111.52 125.931 112.32C125.931 113.109 125.798 113.792 125.531 114.368C125.275 114.944 124.918 115.387 124.459 115.696C124 116.005 123.462 116.16 122.843 116.16C122.182 116.16 121.574 116.005 121.019 115.696C120.464 115.387 120.022 114.944 119.691 114.368C119.36 113.792 119.195 113.109 119.195 112.32ZM120.491 112.32C120.491 112.885 120.603 113.365 120.827 113.76C121.062 114.155 121.371 114.453 121.755 114.656C122.139 114.859 122.555 114.96 123.003 114.96C123.376 114.96 123.744 114.859 124.107 114.656C124.47 114.453 124.768 114.155 125.003 113.76C125.238 113.365 125.355 112.885 125.355 112.32C125.355 111.755 125.238 111.275 125.003 110.88C124.768 110.485 124.47 110.187 124.107 109.984C123.744 109.781 123.376 109.68 123.003 109.68C122.555 109.68 122.139 109.781 121.755 109.984C121.371 110.187 121.062 110.485 120.827 110.88C120.603 111.275 120.491 111.755 120.491 112.32Z" fill="white"/>
</svg>
