<svg width="181" height="181" viewBox="0 0 181 181" fill="none" xmlns="http://www.w3.org/2000/svg">
<g clip-path="url(#clip0_1974_2402)">
<path d="M178.36 93.5167H168.933C167.424 93.5167 165.916 92.3854 165.916 90.5C165.916 88.6146 167.047 87.4833 168.933 87.4833H178.36C179.868 87.4833 181.376 88.6146 181.376 90.5C181.376 92.3854 179.868 93.5167 178.36 93.5167Z" fill="#AAB6D6"/>
<path d="M90.4991 16.5917C88.9908 16.5917 87.4824 15.4604 87.4824 13.575V4.525C87.4824 3.01666 88.6137 1.50833 90.4991 1.50833C92.3845 1.50833 93.5157 2.63958 93.5157 4.525V13.575C93.5157 15.4604 92.0074 16.5917 90.4991 16.5917Z" fill="#AAB6D6"/>
<path d="M12.0667 93.5167H3.01667C1.13125 93.5167 0 92.0083 0 90.5C0 88.9917 1.13125 87.4833 3.01667 87.4833H12.4438C13.575 87.8604 15.0833 88.9917 15.0833 90.5C15.0833 92.0083 13.575 93.5167 12.0667 93.5167Z" fill="#AAB6D6"/>
<path d="M90.4991 179.115C88.9908 179.115 87.4824 177.983 87.4824 176.098V167.048C87.4824 165.54 88.6137 164.031 90.4991 164.031C92.3845 164.031 93.5157 165.162 93.5157 167.048V176.098C93.5157 177.983 92.0074 179.115 90.4991 179.115Z" fill="#AAB6D6"/>
<path d="M35.0682 39.2167C34.3141 39.2167 33.5599 38.8396 33.1828 38.4625L26.3953 31.675C25.2641 30.9208 25.2641 29.0354 26.3953 27.9042C27.5266 26.7729 29.412 26.7729 30.5432 27.9042L36.9536 34.3146C38.0849 35.4458 38.0849 37.3312 36.9536 38.4625C36.5766 38.8396 35.8224 39.2167 35.0682 39.2167Z" fill="#AAB6D6"/>
<path d="M152.342 153.85C151.587 153.85 150.833 153.473 150.456 153.096L144.046 146.685C142.914 145.554 142.914 143.669 144.046 142.538C145.177 141.406 147.062 141.406 148.194 142.538L154.604 148.948C155.735 150.079 155.735 151.965 154.604 153.096C153.85 153.85 153.096 153.85 152.342 153.85Z" fill="#AAB6D6"/>
<path d="M145.931 39.2167C145.177 39.2167 144.423 38.8396 144.046 38.4625C142.914 37.3312 142.914 35.4458 144.046 34.3146L150.456 27.9042C151.587 26.7729 153.473 26.7729 154.604 27.9042C155.735 29.0354 155.735 30.9208 154.604 32.0521L148.194 38.4625C147.439 38.8396 146.685 39.2167 145.931 39.2167Z" fill="#AAB6D6"/>
<path d="M28.6577 153.85C27.9035 153.85 27.1493 153.473 26.7723 153.096C25.641 151.965 25.641 150.079 26.7723 148.948L33.1827 142.538C34.3139 141.406 36.1993 141.406 37.3306 142.538C38.4618 143.669 38.4618 145.554 37.3306 146.685L30.9202 153.096C29.7889 153.85 29.0348 153.85 28.6577 153.85Z" fill="#AAB6D6"/>
<path d="M9.42763 126.323C8.29638 126.323 7.16513 125.569 6.78805 124.437C6.03388 122.929 6.78805 121.421 8.29638 120.667L16.9693 117.273C18.4776 116.519 19.986 117.273 20.7401 118.781C21.4943 120.29 20.7401 121.798 19.2318 122.552L10.5589 125.946C10.1818 125.946 9.80472 126.323 9.42763 126.323Z" fill="#AAB6D6"/>
<path d="M162.9 64.1042C161.769 64.1042 160.638 63.35 160.261 62.2187C159.507 60.7104 160.261 59.2021 161.769 58.4479L170.442 55.0542C171.95 54.3 173.459 55.0542 174.213 56.5625C174.967 58.0708 174.213 59.5792 172.704 60.3333L164.032 63.7271C163.654 63.7271 163.277 64.1042 162.9 64.1042Z" fill="#AAB6D6"/>
<path d="M60.3331 22.625C59.2019 22.625 58.0706 21.8708 57.6935 20.7396L54.2998 12.4437C53.5456 10.9354 54.2998 9.42707 55.8081 8.67291C57.3164 7.91874 58.8248 8.67291 59.5789 10.1812L62.9727 18.4771C63.7269 19.9854 62.9727 21.4937 61.4644 22.2479C61.0873 22.2479 60.7102 22.625 60.3331 22.625Z" fill="#AAB6D6"/>
<path d="M124.06 172.704C122.928 172.704 121.797 171.95 121.42 170.819L118.026 162.523C117.272 161.015 118.026 159.506 119.535 158.752C121.043 157.998 122.551 158.752 123.306 160.26L126.699 168.556C127.453 170.065 126.699 171.573 125.191 172.327C124.814 172.704 124.437 172.704 124.06 172.704Z" fill="#AAB6D6"/>
<path d="M18.1006 64.1042C17.7235 64.1042 17.3464 64.1042 16.9693 63.7271L8.29638 60.3333C6.78805 59.5792 6.03388 58.0708 6.78805 56.5625C7.54222 55.0542 9.05055 54.3 10.5589 55.0542L19.2318 58.4479C20.7401 59.2021 21.4943 60.7104 20.7401 62.2187C20.3631 63.35 19.2318 64.1042 18.1006 64.1042Z" fill="#AAB6D6"/>
<path d="M171.573 126.323C171.196 126.323 170.819 126.323 170.442 125.946L161.769 122.552C160.261 121.798 159.507 120.29 160.261 118.781C161.015 117.273 162.523 116.519 164.032 117.273L172.704 120.667C174.213 121.421 174.967 122.929 174.213 124.437C173.836 125.569 172.704 126.323 171.573 126.323Z" fill="#AAB6D6"/>
<path d="M120.666 22.625C120.289 22.625 119.912 22.625 119.535 22.2479C118.026 21.4937 117.272 19.9854 118.026 18.4771L121.42 10.1812C122.174 8.67291 123.683 7.91874 125.191 8.67291C126.699 9.42707 127.453 10.9354 126.699 12.4437L123.306 20.7396C122.551 21.8708 121.42 22.625 120.666 22.625Z" fill="#AAB6D6"/>
<path d="M56.9394 172.704C56.5623 172.704 56.1852 172.704 55.8081 172.327C54.2998 171.573 53.5456 170.065 54.2998 168.556L57.6935 160.26C58.4477 158.752 59.956 157.998 61.4644 158.752C62.9727 159.506 63.7269 161.015 62.9727 162.523L59.5789 170.819C59.2019 171.95 58.0706 172.704 56.9394 172.704Z" fill="#AAB6D6"/>
<path d="M135.749 75.4167C135.372 72.0229 132.355 70.1375 128.962 70.1375H96.5326L102.566 48.6438C104.074 42.9875 100.68 37.3313 95.0242 35.8229L92.0075 35.0688C88.6138 49.0208 81.0721 60.3333 70.1367 70.1375V118.781C75.793 121.421 82.2034 122.552 88.6138 122.552H118.403C121.797 122.552 124.814 120.29 125.191 117.273C125.945 113.125 122.551 109.731 118.78 109.731H122.174C125.568 109.731 128.585 107.469 128.962 104.075C129.716 99.9271 126.322 96.5333 122.551 96.5333H125.945C129.339 96.5333 132.355 94.2708 132.733 90.8771C133.487 86.7292 130.093 83.3354 126.322 83.3354H129.716C133.487 82.9583 136.503 79.5646 135.749 75.4167Z" fill="#FFD599"/>
<path d="M129.339 82.9583H125.568C129.716 82.9583 132.733 86.3521 131.978 90.5C131.601 93.8937 128.585 96.1562 125.191 96.1562H121.797C125.945 96.1562 128.962 99.55 128.208 103.698C128.208 107.092 125.191 109.354 121.797 109.354H118.403C122.551 109.354 125.568 112.748 124.814 116.896C124.437 120.29 121.42 122.175 118.026 122.175H88.2367C84.843 122.175 81.4492 121.798 78.4325 121.044C75.4159 120.29 72.7763 119.535 70.1367 118.404V69.7604C81.0721 59.9562 88.9909 48.6437 92.0075 34.6917L95.0242 35.4458C100.68 36.9541 104.074 42.6104 102.566 48.2667L96.5326 69.7604H128.962C132.355 69.7604 135.372 72.0229 135.749 75.0396C136.503 79.5646 133.487 82.9583 129.339 82.9583Z" fill="#FFD599"/>
<path d="M63.7263 59.9562H48.2659C44.8721 59.9562 41.8555 62.9729 41.8555 66.3667V118.781C41.8555 122.175 44.8721 125.192 48.2659 125.192H63.7263C67.12 125.192 70.1367 122.175 70.1367 118.781V66.3667C70.1367 62.9729 67.12 59.9562 63.7263 59.9562Z" fill="#94D5FF"/>
<path d="M70.1367 66.3667V71.2687C70.1367 67.875 67.12 64.8583 63.7263 64.8583H48.2659C44.8721 64.8583 41.8555 67.875 41.8555 71.2687V66.3667C41.8555 62.5958 44.8721 59.9562 48.2659 59.9562H63.7263C67.12 59.9562 70.1367 62.9729 70.1367 66.3667Z" fill="#A9DDFF"/>
<path d="M41.8555 119.158V114.256C41.8555 118.027 44.8721 120.667 48.2659 120.667H63.7263C67.4971 120.667 70.1367 117.65 70.1367 114.256V119.158C70.1367 122.929 67.12 125.569 63.7263 125.569H48.2659C44.8721 125.569 41.8555 122.552 41.8555 119.158Z" fill="#85BFE5"/>
<path d="M96.5326 69.7604H92.7617L99.5492 59.5792L96.5326 69.7604Z" fill="#FCC67E"/>
<path d="M131.601 86.3521L105.959 82.9583H125.567C128.207 82.9583 130.469 84.4667 131.601 86.3521Z" fill="#FCC67E"/>
<path d="M127.83 99.55L110.107 96.1562H122.174C124.437 96.1562 126.699 97.6646 127.83 99.55Z" fill="#FCC67E"/>
<path d="M124.437 112.748L113.879 109.354H118.404C121.043 109.354 123.306 110.863 124.437 112.748Z" fill="#FCC67E"/>
<path d="M78.4325 121.421C75.4159 120.667 72.7763 119.912 70.1367 118.781V69.7604L78.4325 121.421Z" fill="#FCC67E"/>
<path d="M55.8086 115.388C58.9325 115.388 61.4648 112.855 61.4648 109.731C61.4648 106.607 58.9325 104.075 55.8086 104.075C52.6847 104.075 50.1523 106.607 50.1523 109.731C50.1523 112.855 52.6847 115.388 55.8086 115.388Z" fill="#E1ECFF"/>
<path d="M61.4646 109.731C61.4646 112.748 58.825 115.388 55.8083 115.388C53.5458 115.388 51.6604 114.256 50.9062 112.371C51.6604 112.748 52.4146 113.125 53.5458 113.125C56.5625 113.125 59.2021 110.485 59.2021 107.469C59.2021 106.338 58.825 105.583 58.4479 104.829C60.3333 105.583 61.4646 107.469 61.4646 109.731Z" fill="#CAE0FF"/>
<path d="M55.8082 106.338C55.8082 107.469 54.677 108.6 53.5457 108.6C52.4145 108.6 51.6603 107.846 51.2832 107.092C52.0374 105.96 53.1686 104.829 54.677 104.452C55.4311 104.829 55.8082 105.206 55.8082 106.338Z" fill="#EEF5FF"/>
</g>
<defs>
<clipPath id="clip0_1974_2402">
<rect width="181" height="181" fill="white"/>
</clipPath>
</defs>
</svg>
