<svg width="179" height="43" viewBox="0 0 179 43" fill="none" xmlns="http://www.w3.org/2000/svg">
<g clip-path="url(#clip0_2165_2696)">
<path d="M11.1868 31.4099L9.37829 33.9076H2.49866L6.99439 27.7133C8.14715 29.2058 9.57246 30.4552 11.1868 31.4099Z" fill="white"/>
<path d="M9.53505 34.216H1.89461L6.9867 27.1997L7.23723 27.5241C8.36181 28.9801 9.74306 30.1976 11.3426 31.1441L11.6341 31.3163L9.53454 34.216H9.53505ZM3.1032 33.5991H9.22202L10.7416 31.5004C9.31321 30.613 8.05902 29.5128 7.00566 28.2223L3.1032 33.5991Z" fill="url(#paint0_linear_2165_2696)"/>
<path d="M33.6932 33.8562L27.3597 33.8618L25.8186 31.8187L22.886 27.9313L18.2012 21.7216L14.0539 27.4496C12.3452 26.5334 10.9522 25.1935 10.031 23.5293L14.7609 17.0127L9.99565 10.4899L6.99235 6.37937L2.55707 0.308487H10.0669L11.6515 2.56707L14.1369 6.1079L18.3631 12.131L22.573 6.23644C23.6796 6.85288 25.2735 8.07498 26.4221 10.3603L21.701 16.8872L26.4539 23.6126L29.7487 28.2747L33.6932 33.8562Z" fill="white"/>
<path d="M27.207 34.1703L18.2063 22.2393L14.145 27.848L13.9089 27.7215C12.1326 26.7693 10.6991 25.3714 9.76202 23.6789L9.66673 23.5067L14.3797 17.0132L1.95045 0H10.2262L18.3651 11.5983L22.4823 5.83335L22.7215 5.96651C23.8845 6.61432 25.5184 7.87857 26.6962 10.221L26.7808 10.3891L22.0791 16.8893L34.2875 34.1641L27.207 34.1703ZM18.1961 21.2039L27.5124 33.5533L33.0984 33.5482L21.3223 16.8851L26.062 10.333C25.0424 8.3891 23.696 7.26727 22.6606 6.64362L18.361 12.6641L9.90753 0.616959H3.16366L15.1415 17.0121L10.3963 23.5498C11.2329 24.9879 12.46 26.1904 13.9647 27.048L18.1961 21.2039Z" fill="url(#paint1_linear_2165_2696)"/>
<path d="M33.6932 0.308487L29.4895 6.11973C29.364 5.94647 29.2302 5.77115 29.0883 5.5948C28.0278 4.27811 26.7382 3.20768 25.3042 2.41283L26.8074 0.308487H33.6932Z" fill="white"/>
<path d="M29.49 6.64465L29.241 6.30121C29.1165 6.12898 28.9843 5.95674 28.8496 5.78862C27.8275 4.51974 26.5851 3.47502 25.1562 2.68274L24.8534 2.51514L26.6496 0H34.2962L29.4895 6.64465H29.49ZM25.753 2.31411C27.1261 3.12233 28.3275 4.15933 29.3276 5.40096C29.3809 5.46677 29.4331 5.53361 29.4854 5.60096L33.0907 0.617473H26.9657L25.7535 2.31463L25.753 2.31411Z" fill="url(#paint2_linear_2165_2696)"/>
<path d="M31.4645 10.4919L27.021 11.7777C26.8417 11.2652 26.6399 10.7937 26.4221 10.3603C25.2735 8.07496 23.6796 6.85287 22.573 6.23642C21.8137 5.81381 21.2834 5.67602 21.2834 5.67602C18.1766 4.93773 15.8563 5.28734 14.1369 6.10789L11.6515 2.56706C13.6783 1.53931 15.7953 1.01952 17.4988 0.838546C20.2382 0.548061 22.9634 1.11361 25.3042 2.41282C26.7382 3.20767 28.0278 4.27809 29.0883 5.59479C29.2302 5.77113 29.364 5.94645 29.4895 6.11972C31.1853 8.45799 31.4645 10.4919 31.4645 10.4919Z" fill="white"/>
<path d="M26.8274 12.1551L26.7311 11.8801C26.563 11.4004 26.3668 10.9356 26.1475 10.4991C25.0404 8.29656 23.5116 7.112 22.4239 6.50583C21.7394 6.12486 21.2475 5.98553 21.2086 5.97473C18.5153 5.33567 16.1806 5.47397 14.269 6.38604L14.0349 6.49761L11.1955 2.45241L11.5132 2.29149C13.3269 1.3717 15.4413 0.746519 17.467 0.531611C20.2593 0.235471 23.0212 0.792791 25.4538 2.1429C26.9524 2.97374 28.2563 4.06987 29.3281 5.40096C29.47 5.5768 29.6078 5.75777 29.739 5.93823C31.4604 8.31198 31.7581 10.3634 31.7699 10.4497L31.8062 10.714L26.8279 12.1546L26.8274 12.1551ZM18.0695 4.96395C19.1014 4.96395 20.1978 5.10122 21.3546 5.37628L21.3608 5.37783C21.3838 5.384 21.9382 5.53052 22.7226 5.96702C23.8861 6.61483 25.5194 7.87908 26.6973 10.222C26.8863 10.5983 27.059 10.9942 27.2121 11.4019L31.1095 10.2739C30.9737 9.66466 30.5208 8.06571 29.241 6.30121C29.116 6.12897 28.9843 5.95674 28.8491 5.78862C27.8269 4.51974 26.5845 3.47502 25.1556 2.68274C22.8337 1.39433 20.1973 0.862199 17.5311 1.14497C16.4511 1.25962 14.3515 1.61129 12.1101 2.68428L14.2414 5.72024C15.39 5.21536 16.6698 4.96292 18.0695 4.96292V4.96395Z" fill="black"/>
<path d="M25.8186 31.8186C23.8481 32.9621 22.2 33.2413 22.2 33.2413C22.076 33.2644 21.9525 33.287 21.8301 33.3081C17.987 33.9739 14.2475 33.2217 11.1868 31.4099C9.57245 30.4552 8.14714 29.2058 6.99439 27.7133C5.45175 25.7174 4.39736 23.2876 4.0336 20.5504C3.11038 13.6034 5.37387 9.09604 5.78886 8.34027C5.84368 8.24052 5.89645 8.13975 5.94871 8.03847C6.25765 7.44156 6.60809 6.88938 6.99234 6.37936L9.99564 10.4899C9.65289 11.2477 9.52737 11.7778 9.52737 11.7778C8.73786 14.6368 8.66511 17.3443 8.83623 19.4949C8.95458 20.9818 9.37213 22.3386 10.031 23.5293C10.9522 25.1935 12.3452 26.5334 14.0538 27.4495C15.1615 28.0444 16.4024 28.4603 17.7334 28.6711C18.8191 28.8428 19.9339 28.8464 21.0308 28.6264C21.7199 28.4881 22.3357 28.2449 22.886 27.9313L25.8186 31.8186Z" fill="white"/>
<path d="M19.0799 33.8536C16.2374 33.8536 13.4534 33.1096 11.0306 31.6757C9.36343 30.6896 7.92377 29.4202 6.75155 27.9025C5.13103 25.8059 4.08587 23.2779 3.72877 20.5915C2.79786 13.5885 5.05726 9.03383 5.51938 8.19168C5.57728 8.08628 5.63312 7.97883 5.67564 7.89708C5.98407 7.30069 6.34475 6.72795 6.74694 6.19376L6.99593 5.86317L10.3497 10.4534L10.2754 10.6179C9.95108 11.3351 9.8276 11.8451 9.82607 11.8497L9.82351 11.8605C9.16054 14.2605 8.93153 16.8209 9.14261 19.4707C9.25481 20.88 9.64419 22.1951 10.2995 23.3797C11.1786 24.9678 12.5271 26.2814 14.1983 27.1776C15.2876 27.7627 16.4931 28.1626 17.7811 28.3662C18.8857 28.5411 19.9585 28.5267 20.9704 28.3236C21.5893 28.1997 22.1826 27.977 22.7338 27.6629L22.968 27.5292L26.273 31.9107L25.9718 32.0855C23.9762 33.2433 22.3199 33.5333 22.2507 33.5451C22.1303 33.5677 22.0053 33.5904 21.8813 33.6119C20.9483 33.7734 20.0103 33.8536 19.0793 33.8536H19.0799ZM6.99337 6.90224C6.70902 7.30994 6.45029 7.73873 6.22179 8.18037C6.17824 8.2652 6.11984 8.37728 6.05836 8.48885C5.61211 9.30118 3.43316 13.6975 4.33845 20.5093C4.6812 23.0876 5.68333 25.5133 7.23724 27.5241C8.36181 28.9801 9.74307 30.1976 11.3431 31.1441C14.434 32.9739 18.1397 33.6341 21.7778 33.0042C21.8992 32.9832 22.0212 32.9611 22.1436 32.9379C22.1631 32.9343 23.6022 32.6803 25.3606 31.7225L22.7999 28.3287C22.2594 28.6079 21.6856 28.8094 21.0908 28.9292C20.0077 29.1467 18.8621 29.1621 17.6853 28.976C16.3291 28.7611 15.0585 28.3395 13.9083 27.7215C12.1326 26.7694 10.6986 25.3714 9.76203 23.6789C9.0632 22.4162 8.64872 21.0167 8.52935 19.5191C8.31263 16.7988 8.5483 14.168 9.2292 11.6996C9.24406 11.6389 9.35984 11.1814 9.64214 10.5274L6.99286 6.90172L6.99337 6.90224Z" fill="black"/>
<path d="M31.9313 23.3447C31.464 25.3647 30.6776 26.9822 29.7487 28.2747L26.4539 23.6126C26.8591 22.6763 27.021 21.9895 27.021 21.9895L31.9313 23.3447Z" fill="white"/>
<path d="M29.7467 28.8048L26.1029 23.6491L26.1721 23.4897C26.5599 22.593 26.7203 21.9252 26.7223 21.9185L26.7961 21.608L27.103 21.6923L32.2981 23.1262L32.2315 23.4146C31.7939 25.3072 31.0424 27.0028 29.9987 28.4552L29.7472 28.8048H29.7467ZM26.8043 23.5745L29.7461 27.7375C30.5638 26.5087 31.1735 25.1077 31.5624 23.5627L27.2362 22.3684C27.1568 22.6368 27.018 23.0625 26.8043 23.5745Z" fill="black"/>
<path d="M0.71317 37.3651V42.9095H0V37.3651H0.71317Z" fill="black"/>
<path d="M2.01655 40.0057C2.01655 39.5944 2.00836 39.2571 1.98376 38.9281H2.61496L2.64775 39.5697H2.67234C2.89367 39.1913 3.26255 38.8376 3.91834 38.8376C4.45937 38.8376 4.86923 39.1666 5.04138 39.6355H5.05777C5.18073 39.4134 5.33648 39.2407 5.50043 39.1173C5.73815 38.9363 6.00047 38.8376 6.37755 38.8376C6.90218 38.8376 7.68093 39.1831 7.68093 40.5651V42.9095H6.97595V40.6556C6.97595 39.8905 6.69724 39.4299 6.11523 39.4299C5.70536 39.4299 5.38567 39.7342 5.26271 40.088C5.22992 40.1867 5.20532 40.3183 5.20532 40.4499V42.9095H4.50035V40.5239C4.50035 39.8905 4.22164 39.4299 3.67242 39.4299C3.22157 39.4299 2.89367 39.7918 2.77891 40.1538C2.73792 40.2607 2.72153 40.3841 2.72153 40.5075V42.9095H2.01655V40.0057Z" fill="black"/>
<path d="M8.85315 40.0057C8.85315 39.5944 8.84495 39.2571 8.82036 38.9281H9.45155L9.48434 39.5697H9.50894C9.73026 39.1913 10.0991 38.8376 10.7549 38.8376C11.296 38.8376 11.7058 39.1666 11.878 39.6355H11.8944C12.0173 39.4134 12.1731 39.2407 12.337 39.1173C12.5747 38.9363 12.8371 38.8376 13.2141 38.8376C13.7388 38.8376 14.5175 39.1831 14.5175 40.5651V42.9095H13.8125V40.6556C13.8125 39.8905 13.5338 39.4299 12.9518 39.4299C12.542 39.4299 12.2223 39.7342 12.0993 40.088C12.0665 40.1867 12.0419 40.3183 12.0419 40.4499V42.9095H11.3369V40.5239C11.3369 39.8905 11.0582 39.4299 10.509 39.4299C10.0582 39.4299 9.73026 39.7918 9.6155 40.1538C9.57451 40.2607 9.55812 40.3841 9.55812 40.5075V42.9095H8.85315V40.0057Z" fill="black"/>
<path d="M19.2802 40.8859C19.2802 42.3584 18.2637 43 17.3046 43C16.2308 43 15.4028 42.2103 15.4028 40.9517C15.4028 39.6191 16.2718 38.8376 17.3702 38.8376C18.4686 38.8376 19.2802 39.6684 19.2802 40.8859ZM16.1324 40.927C16.1324 41.799 16.6324 42.4571 17.3374 42.4571C18.0424 42.4571 18.5424 41.8072 18.5424 40.9106C18.5424 40.236 18.2063 39.3805 17.3538 39.3805C16.5013 39.3805 16.1324 40.1702 16.1324 40.927Z" fill="black"/>
<path d="M20.1573 42.9095C20.1737 42.6381 20.1901 42.235 20.1901 41.8813V37.069H20.9033V39.5697H20.9197C21.1738 39.1255 21.6328 38.8376 22.2722 38.8376C23.2559 38.8376 23.9527 39.6602 23.9445 40.8694C23.9445 42.2926 23.051 43 22.1657 43C21.5918 43 21.1328 42.7779 20.8377 42.2514H20.8131L20.7803 42.9095H20.1573ZM20.9033 41.3136C20.9033 41.4041 20.9197 41.4946 20.9361 41.5769C21.0754 42.0787 21.4935 42.4242 22.0181 42.4242C22.7723 42.4242 23.2231 41.8072 23.2231 40.8941C23.2231 40.0962 22.8132 39.4134 22.0427 39.4134C21.5509 39.4134 21.0918 39.7507 20.9442 40.3018C20.9279 40.3841 20.9033 40.4828 20.9033 40.598V41.3136Z" fill="black"/>
<path d="M25.6577 37.8093C25.6659 38.0561 25.4856 38.2535 25.1987 38.2535C24.9445 38.2535 24.7642 38.0561 24.7642 37.8093C24.7642 37.5625 24.9527 37.3569 25.2151 37.3569C25.4774 37.3569 25.6577 37.5543 25.6577 37.8093ZM24.8544 42.9095V38.9281H25.5757V42.9095H24.8544Z" fill="black"/>
<path d="M26.7726 37.069H27.4939V42.9095H26.7726V37.069Z" fill="black"/>
<path d="M29.51 37.8093C29.5182 38.0561 29.3378 38.2535 29.0509 38.2535C28.7968 38.2535 28.6165 38.0561 28.6165 37.8093C28.6165 37.5625 28.805 37.3569 29.0673 37.3569C29.3296 37.3569 29.51 37.5543 29.51 37.8093ZM28.7066 42.9095V38.9281H29.428V42.9095H28.7066Z" fill="black"/>
<path d="M31.0265 41.0504C31.0429 42.0293 31.6659 42.4324 32.3872 42.4324C32.9037 42.4324 33.2152 42.3419 33.4857 42.2267L33.6086 42.745C33.3545 42.8602 32.9201 42.9918 32.2889 42.9918C31.0675 42.9918 30.3379 42.1856 30.3379 40.9846C30.3379 39.7836 31.0429 38.8376 32.1987 38.8376C33.4939 38.8376 33.8382 39.981 33.8382 40.7131C33.8382 40.8612 33.8218 40.9764 33.8136 41.0504H31.0265ZM33.1414 40.5322C33.1496 40.0715 32.9529 39.3558 32.1413 39.3558C31.4118 39.3558 31.0921 40.0304 31.0347 40.5322H33.1414Z" fill="black"/>
<path d="M34.7317 40.1702C34.7317 39.7013 34.7235 39.2982 34.6989 38.9281H35.3301L35.3547 39.7096H35.3875C35.5678 39.1749 36.0023 38.8376 36.4859 38.8376C36.5679 38.8376 36.6253 38.8458 36.6908 38.8623V39.545C36.6171 39.5286 36.5433 39.5204 36.4449 39.5204C35.9367 39.5204 35.576 39.907 35.4776 40.4499C35.4612 40.5486 35.4448 40.6638 35.4448 40.7872V42.9095H34.7317V40.1702Z" fill="black"/>
<path d="M56.1314 11.5659C55.3009 10.549 54.2747 10.04 53.0538 10.04C52.5163 10.04 52.0189 10.1382 51.5608 10.3341C51.1028 10.5305 50.7088 10.7968 50.3794 11.1336C50.0495 11.4708 49.7902 11.8718 49.6006 12.3376C49.4111 12.8035 49.3168 13.3058 49.3168 13.8451C49.3168 14.3844 49.4111 14.9052 49.6006 15.371C49.7897 15.8368 50.0525 16.2415 50.3886 16.5844C50.7242 16.9278 51.1182 17.1972 51.5701 17.3931C52.0219 17.5895 52.5102 17.6872 53.0359 17.6872C54.1835 17.6872 55.2158 17.1972 56.1319 16.2163V20.4815L55.7656 20.61C55.2158 20.8059 54.703 20.9504 54.2265 21.0419C53.7501 21.1334 53.2797 21.1797 52.8161 21.1797C51.8636 21.1797 50.9501 20.9987 50.0771 20.6373C49.2036 20.2759 48.4346 19.7674 47.7691 19.1113C47.103 18.4558 46.5692 17.6774 46.166 16.7767C45.7628 15.8759 45.5614 14.8924 45.5614 13.8261C45.5614 12.7598 45.7597 11.7824 46.1567 10.894C46.5533 10.0055 47.0846 9.23949 47.7506 8.59579C48.4161 7.95261 49.1887 7.44979 50.0679 7.08835C50.9471 6.72692 51.8693 6.54594 52.834 6.54594C53.3837 6.54594 53.9242 6.60404 54.4555 6.72075C54.9868 6.83746 55.5458 7.01792 56.1319 7.26316V11.5649L56.1314 11.5659Z" fill="black"/>
<path d="M57.7253 15.9962C57.7253 15.2975 57.8657 14.6451 58.1464 14.0384C58.4272 13.4317 58.8181 12.9047 59.3186 12.4574C59.8192 12.0101 60.4145 11.658 61.1046 11.4004C61.7942 11.1428 62.5489 11.0143 63.3671 11.0143C64.1853 11.0143 64.921 11.1402 65.6111 11.3911C66.3007 11.6425 66.8996 11.9916 67.4063 12.4389C67.913 12.8867 68.307 13.4194 68.5878 14.0384C68.8685 14.6574 69.0089 15.3407 69.0089 16.0882C69.0089 16.8358 68.8655 17.5191 68.5786 18.1381C68.2917 18.7571 67.8977 19.2903 67.3971 19.7376C66.8961 20.1854 66.2946 20.5314 65.5927 20.7761C64.8903 21.0213 64.13 21.1437 63.3118 21.1437C62.4936 21.1437 61.7604 21.0208 61.077 20.7761C60.393 20.5309 59.8038 20.1818 59.3089 19.7283C58.8145 19.2748 58.4267 18.7324 58.1454 18.1011C57.8641 17.4702 57.7242 16.7684 57.7242 15.9962H57.7253ZM61.2245 16.0332C61.2245 16.352 61.2824 16.643 61.3987 16.9062C61.5145 17.17 61.6672 17.3998 61.8567 17.5957C62.0458 17.7921 62.2717 17.9448 62.5346 18.0553C62.7969 18.1659 63.0751 18.2209 63.3681 18.2209C63.6612 18.2209 63.9389 18.1659 64.2017 18.0553C64.464 17.9448 64.6899 17.7921 64.8795 17.5957C65.0686 17.3998 65.2212 17.17 65.3375 16.9062C65.4533 16.643 65.5117 16.3576 65.5117 16.0512C65.5117 15.7448 65.4538 15.4785 65.3375 15.2147C65.2212 14.9515 65.0686 14.7217 64.8795 14.5253C64.6899 14.3294 64.464 14.1762 64.2017 14.0656C63.9389 13.9551 63.6612 13.9001 63.3681 13.9001C63.0751 13.9001 62.7969 13.9551 62.5346 14.0656C62.2717 14.1762 62.0458 14.3294 61.8567 14.5253C61.6672 14.7217 61.5145 14.9479 61.3987 15.2055C61.2824 15.4631 61.2245 15.7386 61.2245 16.0327V16.0332Z" fill="black"/>
<path d="M74.2312 11.3634V16.6764C74.2312 17.8409 74.7927 18.4229 75.9167 18.4229C77.0408 18.4229 77.6023 17.8409 77.6023 16.6764V11.3634H80.9181V17.3196C80.9181 18.5941 80.4996 19.5504 79.6634 20.1874C78.8268 20.8244 77.5777 21.1432 75.9172 21.1432C74.2568 21.1432 73.0072 20.8244 72.1711 20.1874C71.3344 19.5504 70.9164 18.5941 70.9164 17.3196V11.3634H74.2322H74.2312Z" fill="black"/>
<path d="M83.1714 11.3634H86.4872V12.9078C86.8412 12.3443 87.2752 11.9124 87.788 11.6117C88.3009 11.3114 88.8993 11.1613 89.5833 11.1613H89.8671C89.9706 11.1613 90.09 11.1736 90.2242 11.1983V14.3787C89.7846 14.1582 89.3081 14.0476 88.7953 14.0476C88.0258 14.0476 87.4489 14.2775 87.0641 14.7371C86.6793 15.1967 86.4872 15.8677 86.4872 16.7499V20.7946H83.1714V11.3634Z" fill="black"/>
<path d="M95.7564 14.1397V20.7946H92.4405V14.1397H91.3416V11.3639H92.4405V8.53255H95.7564V11.3639H97.6433V14.1397H95.7564Z" fill="black"/>
<path d="M98.9257 7.7418C98.9257 7.48422 98.9744 7.24258 99.0722 7.01585C99.1701 6.78911 99.3043 6.59014 99.4754 6.41842C99.6465 6.2467 99.8448 6.112 100.071 6.0138C100.297 5.9156 100.538 5.86676 100.794 5.86676C101.05 5.86676 101.292 5.91612 101.518 6.0138C101.744 6.112 101.942 6.2467 102.113 6.41842C102.284 6.59014 102.418 6.78911 102.516 7.01585C102.614 7.24258 102.663 7.48474 102.663 7.7418C102.663 7.99887 102.613 8.24154 102.516 8.46776C102.418 8.69449 102.284 8.89397 102.113 9.06518C101.942 9.2369 101.744 9.3716 101.518 9.4698C101.292 9.568 101.05 9.61684 100.794 9.61684C100.538 9.61684 100.296 9.568 100.071 9.4698C99.8448 9.3716 99.646 9.2369 99.4754 9.06518C99.3043 8.89346 99.1701 8.69449 99.0722 8.46776C98.9744 8.24102 98.9257 7.99887 98.9257 7.7418ZM102.461 11.3634V20.7946H99.1455V11.3634H102.461Z" fill="black"/>
<path d="M107.719 16.6399C107.719 18.0738 108.391 18.791 109.734 18.791C110.454 18.791 110.998 18.497 111.364 17.9088H114.57C113.923 20.0661 112.305 21.1442 109.715 21.1442C108.921 21.1442 108.195 21.0249 107.535 20.7859C106.876 20.5468 106.311 20.207 105.841 19.7653C105.37 19.3242 105.007 18.7972 104.75 18.1844C104.494 17.5715 104.366 16.8857 104.366 16.1253C104.366 15.3649 104.488 14.6332 104.732 14.0019C104.976 13.3705 105.324 12.8343 105.776 12.3932C106.228 11.952 106.775 11.6117 107.416 11.3726C108.057 11.1335 108.78 11.0143 109.586 11.0143C110.392 11.0143 111.095 11.1335 111.73 11.3726C112.365 11.6117 112.902 11.9582 113.342 12.4112C113.782 12.8646 114.117 13.4194 114.35 14.0749C114.582 14.7309 114.698 15.4692 114.698 16.2903V16.6394H107.718L107.719 16.6399ZM111.603 14.7093C111.493 14.2435 111.267 13.8698 110.925 13.588C110.583 13.3063 110.168 13.1654 109.68 13.1654C109.167 13.1654 108.748 13.3006 108.425 13.57C108.101 13.8399 107.897 14.2199 107.811 14.7099H111.603L111.603 14.7093Z" fill="black"/>
<path d="M116.585 11.3634H119.901V12.9078C120.255 12.3443 120.689 11.9124 121.202 11.6117C121.715 11.3114 122.313 11.1613 122.997 11.1613H123.281C123.385 11.1613 123.504 11.1736 123.638 11.1983V14.3787C123.199 14.1582 122.722 14.0476 122.209 14.0476C121.44 14.0476 120.863 14.2775 120.478 14.7371C120.093 15.1967 119.901 15.8677 119.901 16.7499V20.7946H116.585V11.3634Z" fill="black"/>
<path d="M129.373 13.404L125.068 6.93257H129.501L131.369 10.5176L133.677 6.93257H138.111L133.549 13.404L138.697 20.7946H134.318L131.552 16.2723L128.31 20.7946H123.968L129.372 13.404H129.373Z" fill="url(#paint4_linear_2165_2696)"/>
<path d="M143.149 25.501H139.833V11.3634H143.149V12.4112C143.857 11.5166 144.822 11.0693 146.044 11.0693C146.715 11.0693 147.341 11.2009 147.921 11.4646C148.501 11.7284 149.005 12.0867 149.433 12.5402C149.86 12.9937 150.193 13.5268 150.431 14.1397C150.669 14.7525 150.788 15.408 150.788 16.1067C150.788 16.8055 150.669 17.4553 150.431 18.0553C150.193 18.6558 149.864 19.1828 149.442 19.6363C149.021 20.0897 148.523 20.445 147.949 20.7026C147.375 20.9602 146.752 21.0887 146.08 21.0887C144.908 21.0887 143.931 20.6841 143.149 19.8753V25.501H143.149ZM147.326 16.1067C147.326 15.8127 147.274 15.534 147.17 15.2703C147.066 15.007 146.917 14.7772 146.721 14.5808C146.526 14.3849 146.297 14.2286 146.034 14.1119C145.772 13.9957 145.488 13.9371 145.182 13.9371C144.877 13.9371 144.615 13.9921 144.358 14.1027C144.101 14.2132 143.878 14.3664 143.689 14.5623C143.5 14.7587 143.347 14.9885 143.231 15.2517C143.115 15.5155 143.057 15.7942 143.057 16.0882C143.057 16.3823 143.112 16.6579 143.222 16.9155C143.332 17.1731 143.484 17.3967 143.68 17.5864C143.875 17.7766 144.104 17.9299 144.367 18.0461C144.63 18.1628 144.908 18.2209 145.201 18.2209C145.494 18.2209 145.768 18.1658 146.025 18.0553C146.282 17.9448 146.504 17.7921 146.694 17.5957C146.883 17.3998 147.035 17.1731 147.152 16.9155C147.268 16.6579 147.326 16.3885 147.326 16.1067Z" fill="url(#paint5_linear_2165_2696)"/>
<path d="M155.661 16.6399C155.661 18.0738 156.333 18.791 157.676 18.791C158.396 18.791 158.94 18.497 159.306 17.9088H162.513C161.865 20.0661 160.247 21.1442 157.658 21.1442C156.864 21.1442 156.137 21.0249 155.478 20.7859C154.818 20.5468 154.253 20.207 153.783 19.7653C153.313 19.3242 152.949 18.7972 152.693 18.1844C152.436 17.5715 152.308 16.8857 152.308 16.1253C152.308 15.3649 152.43 14.6332 152.674 14.0019C152.919 13.3705 153.266 12.8343 153.718 12.3932C154.17 11.952 154.717 11.6117 155.358 11.3726C155.999 11.1335 156.723 11.0143 157.529 11.0143C158.334 11.0143 159.037 11.1335 159.672 11.3726C160.307 11.6117 160.844 11.9582 161.284 12.4112C161.724 12.8646 162.06 13.4194 162.292 14.0749C162.524 14.7309 162.64 15.4692 162.64 16.2903V16.6394H155.66L155.661 16.6399ZM159.545 14.7093C159.435 14.2435 159.209 13.8698 158.867 13.588C158.525 13.3063 158.11 13.1654 157.622 13.1654C157.109 13.1654 156.69 13.3006 156.367 13.57C156.043 13.8399 155.839 14.2199 155.753 14.7099H159.546L159.545 14.7093Z" fill="url(#paint6_linear_2165_2696)"/>
<path d="M164.528 11.3634H167.843V12.9078C168.197 12.3443 168.631 11.9124 169.144 11.6117C169.657 11.3114 170.255 11.1613 170.939 11.1613H171.223C171.327 11.1613 171.446 11.1736 171.58 11.1983V14.3787C171.141 14.1582 170.664 14.0476 170.151 14.0476C169.382 14.0476 168.805 14.2775 168.42 14.7371C168.036 15.1967 167.843 15.8677 167.843 16.7499V20.7946H164.528V11.3634Z" fill="url(#paint7_linear_2165_2696)"/>
<path d="M177.113 14.1397V20.7946H173.797V14.1397H172.698V11.3639H173.797V8.53255H177.113V11.3639H179V14.1397H177.113Z" fill="url(#paint8_linear_2165_2696)"/>
</g>
<defs>
<linearGradient id="paint0_linear_2165_2696" x1="1.89461" y1="30.7081" x2="11.6346" y2="30.7081" gradientUnits="userSpaceOnUse">
<stop stop-color="#FF512F"/>
<stop offset="1" stop-color="#DD2476"/>
</linearGradient>
<linearGradient id="paint1_linear_2165_2696" x1="1.95045" y1="17.0851" x2="34.288" y2="17.0851" gradientUnits="userSpaceOnUse">
<stop stop-color="#FF512F"/>
<stop offset="1" stop-color="#DD2476"/>
</linearGradient>
<linearGradient id="paint2_linear_2165_2696" x1="24.8529" y1="3.32233" x2="34.2962" y2="3.32233" gradientUnits="userSpaceOnUse">
<stop stop-color="#FF512F"/>
<stop offset="1" stop-color="#DD2476"/>
</linearGradient>
<linearGradient id="paint3_linear_2165_2696" x1="26.1029" y1="25.2064" x2="32.2976" y2="25.2064" gradientUnits="userSpaceOnUse">
<stop stop-color="#FF512F"/>
<stop offset="1" stop-color="#DD2476"/>
</linearGradient>
<linearGradient id="paint4_linear_2165_2696" x1="123.968" y1="13.8636" x2="138.697" y2="13.8636" gradientUnits="userSpaceOnUse">
<stop stop-color="#FF512F"/>
<stop offset="1" stop-color="#DD2476"/>
</linearGradient>
<linearGradient id="paint5_linear_2165_2696" x1="139.833" y1="18.2851" x2="150.788" y2="18.2851" gradientUnits="userSpaceOnUse">
<stop stop-color="#FF512F"/>
<stop offset="1" stop-color="#DD2476"/>
</linearGradient>
<linearGradient id="paint6_linear_2165_2696" x1="152.308" y1="16.079" x2="162.641" y2="16.079" gradientUnits="userSpaceOnUse">
<stop stop-color="#FF512F"/>
<stop offset="1" stop-color="#DD2476"/>
</linearGradient>
<linearGradient id="paint7_linear_2165_2696" x1="164.528" y1="15.9777" x2="171.58" y2="15.9777" gradientUnits="userSpaceOnUse">
<stop stop-color="#FF512F"/>
<stop offset="1" stop-color="#DD2476"/>
</linearGradient>
<linearGradient id="paint8_linear_2165_2696" x1="172.698" y1="14.6636" x2="179" y2="14.6636" gradientUnits="userSpaceOnUse">
<stop stop-color="#FF512F"/>
<stop offset="1" stop-color="#DD2476"/>
</linearGradient>
<clipPath id="clip0_2165_2696">
<rect width="179" height="43" fill="white"/>
</clipPath>
</defs>
</svg>
