<svg width="322" height="77" viewBox="0 0 322 77" fill="none" xmlns="http://www.w3.org/2000/svg">
<g clip-path="url(#clip0_2038_2549)">
<path d="M20.1025 56.2456L16.8526 60.7182H4.48999L12.5687 49.6261C14.6402 52.2988 17.2015 54.536 20.1025 56.2456Z" fill="white"/>
<path d="M17.1343 61.2706H3.40454L12.5549 48.7064L13.0051 49.2873C15.026 51.8946 17.5081 54.0747 20.3824 55.7697L20.9062 56.0781L17.1334 61.2706H17.1343ZM5.57637 60.1658H16.5718L19.3024 56.4077C16.7356 54.8186 14.4819 52.8484 12.589 50.5376L5.57637 60.1658Z" fill="url(#paint0_linear_2038_2549)"/>
<path d="M60.546 60.6261L49.1649 60.6363L46.3955 56.9776L41.1257 50.0165L32.7072 38.8968L25.2545 49.1538C22.1841 47.5132 19.6808 45.114 18.0255 42.1338L26.525 30.4645L17.962 18.7841L12.5651 11.4235L4.59497 0.552394H18.0899L20.9375 4.59684L25.4036 10.9374L32.9981 21.7229L40.5632 11.1676C42.5518 12.2714 45.4159 14.4598 47.4801 18.5521L38.9962 30.2399L47.5371 42.283L53.4579 50.6315L60.546 60.6261Z" fill="white"/>
<path d="M48.8905 61.1887L32.7164 39.8239L25.4183 49.8673L24.9939 49.6409C21.802 47.9358 19.226 45.4325 17.5421 42.4017L17.3709 42.0933L25.84 30.4654L3.50488 0H18.3762L33.0018 20.7691L40.4002 10.4458L40.8301 10.6842C42.92 11.8442 45.856 14.1081 47.9726 18.3026L48.1245 18.6037L39.6756 30.2436L61.6139 61.1776L48.8905 61.1887ZM32.698 37.9697L49.4392 60.0839L59.4771 60.0747L38.3158 30.2362L46.8328 18.5033C45.0007 15.0223 42.5812 13.0135 40.7206 11.8967L32.9944 22.6776L17.8036 1.10479H5.685L27.209 30.4636L18.6819 42.1707C20.1853 44.7457 22.3903 46.8991 25.0943 48.4348L32.698 37.9697Z" fill="url(#paint1_linear_2038_2549)"/>
<path d="M60.546 0.552394L52.992 10.9586C52.7665 10.6483 52.5262 10.3344 52.2712 10.0186C50.3654 7.66078 48.0481 5.74397 45.4712 4.32064L48.1724 0.552394H60.546Z" fill="white"/>
<path d="M52.9931 11.8986L52.5456 11.2836C52.3219 10.9751 52.0844 10.6667 51.8422 10.3657C50.0055 8.09349 47.773 6.22272 45.2052 4.80398L44.6611 4.50385L47.889 0H61.6297L52.9922 11.8986H52.9931ZM46.2778 4.14387C48.7452 5.59115 50.9041 7.44811 52.7012 9.67149C52.797 9.78934 52.8909 9.90902 52.9848 10.0296L59.4634 1.10571H48.457L46.2787 4.14479L46.2778 4.14387Z" fill="url(#paint2_linear_2038_2549)"/>
<path d="M56.5411 18.7878L48.5563 21.0904C48.234 20.1725 47.8713 19.3283 47.48 18.5521C45.4159 14.4598 42.5517 12.2714 40.5631 11.1676C39.1987 10.4108 38.2458 10.164 38.2458 10.164C32.663 8.84198 28.4933 9.46803 25.4036 10.9374L20.9375 4.59684C24.5796 2.75645 28.3838 1.82566 31.4449 1.50159C36.3677 0.98142 41.2647 1.99414 45.4711 4.32064C48.0481 5.74397 50.3654 7.66078 52.2711 10.0186C52.5261 10.3344 52.7664 10.6483 52.992 10.9586C56.0394 15.1457 56.5411 18.7878 56.5411 18.7878Z" fill="white"/>
<path d="M48.2083 21.7662L48.0352 21.2736C47.7332 20.4146 47.3806 19.5824 46.9866 18.8007C44.9971 14.8566 42.2498 12.7354 40.2953 11.65C39.0653 10.9678 38.1814 10.7183 38.1115 10.6989C33.2716 9.55457 29.0761 9.80223 25.6412 11.4355L25.2204 11.6353L20.1182 4.39153L20.689 4.10336C23.9481 2.45631 27.7476 1.33679 31.3879 0.951959C36.4055 0.421661 41.3687 1.41965 45.74 3.8373C48.4329 5.32508 50.776 7.28791 52.702 9.67149C52.957 9.98636 53.2047 10.3104 53.4404 10.6336C56.5338 14.8842 57.0687 18.5577 57.0899 18.7123L57.1552 19.1856L48.2092 21.7652L48.2083 21.7662ZM32.4706 8.88894C34.3248 8.88894 36.295 9.13475 38.3739 9.6273L38.3849 9.63006C38.4263 9.64111 39.4225 9.9035 40.832 10.6851C42.9228 11.8452 45.8579 14.1091 47.9745 18.3045C48.3142 18.9784 48.6244 19.6873 48.8997 20.4174L55.9031 18.3975C55.6592 17.3065 54.8453 14.4433 52.5455 11.2836C52.3209 10.9751 52.0843 10.6667 51.8412 10.3657C50.0045 8.09349 47.7719 6.22271 45.2042 4.80398C41.0318 2.49682 36.2941 1.54394 31.503 2.0503C29.5623 2.25561 25.7894 2.88534 21.7615 4.80675L25.5915 10.2432C27.6556 9.33914 29.9554 8.88709 32.4706 8.88709V8.88894Z" fill="black"/>
<path d="M46.3957 56.9776C42.8548 59.0251 39.8931 59.525 39.8931 59.525C39.6703 59.5665 39.4484 59.607 39.2284 59.6447C32.3225 60.837 25.6026 59.49 20.1026 56.2456C17.2017 54.536 14.6404 52.2988 12.5689 49.6261C9.79682 46.0521 7.90211 41.7011 7.24844 36.7995C5.58942 24.3596 9.65688 16.2882 10.4026 14.9349C10.5011 14.7563 10.5959 14.5758 10.6899 14.3945C11.245 13.3256 11.8747 12.3368 12.5652 11.4235L17.9621 18.7841C17.3462 20.1412 17.1206 21.0904 17.1206 21.0904C15.7019 26.2102 15.5712 31.0583 15.8787 34.9094C16.0913 37.572 16.8417 40.0016 18.0256 42.1338C19.681 45.114 22.1842 47.5132 25.2546 49.1538C27.2451 50.219 29.4749 50.9638 31.8668 51.3413C33.8177 51.6488 35.821 51.6553 37.7921 51.2612C39.0304 51.0136 40.137 50.5781 41.1258 50.0165L46.3957 56.9776Z" fill="white"/>
<path d="M34.2861 60.6215C29.1783 60.6215 24.1755 59.2893 19.8217 56.7216C16.8259 54.9558 14.2388 52.6827 12.1324 49.9649C9.22032 46.2105 7.34218 41.6836 6.70048 36.8732C5.02765 24.3329 9.08774 16.1769 9.91817 14.6688C10.0222 14.4801 10.1226 14.2877 10.199 14.1413C10.7532 13.0733 11.4014 12.0477 12.1241 11.0911L12.5715 10.4992L18.5981 18.7188L18.4646 19.0134C17.8818 20.2977 17.66 21.211 17.6572 21.2193L17.6526 21.2386C16.4613 25.5362 16.0497 30.1211 16.4291 34.8662C16.6307 37.3897 17.3304 39.7447 18.5079 41.8659C20.0877 44.7098 22.5109 47.0621 25.5141 48.6668C27.4714 49.7145 29.6377 50.4308 31.9522 50.7954C33.9372 51.1084 35.865 51.0826 37.6833 50.719C38.7955 50.4971 39.8616 50.0984 40.8522 49.5359L41.273 49.2965L47.2121 57.1424L46.6708 57.4554C43.0848 59.5287 40.1083 60.048 39.984 60.0691C39.7677 60.1096 39.543 60.1502 39.3202 60.1888C37.6437 60.4779 35.958 60.6215 34.2852 60.6215H34.2861ZM12.5669 12.3598C12.0559 13.0899 11.591 13.8577 11.1804 14.6486C11.1021 14.8005 10.9972 15.0012 10.8867 15.201C10.0848 16.6556 6.16926 24.5281 7.79606 36.7259C8.41198 41.343 10.2128 45.6866 13.0051 49.2873C15.026 51.8946 17.5081 54.0747 20.3833 55.7697C25.9376 59.0463 32.5967 60.2284 39.1343 59.1006C39.3525 59.0629 39.5716 59.0233 39.7916 58.9818C39.8266 58.9754 42.4127 58.5206 45.5724 56.8054L40.971 50.7282C39.9997 51.2281 38.9686 51.589 37.8997 51.8035C35.9534 52.1929 33.8948 52.2205 31.7801 51.8873C29.3431 51.5024 27.0599 50.7475 24.993 49.6409C21.802 47.9358 19.2251 45.4325 17.5421 42.4017C16.2864 40.1406 15.5415 37.6346 15.327 34.9527C14.9376 30.0815 15.3611 25.3705 16.5846 20.9505C16.6113 20.8418 16.8194 20.0224 17.3267 18.8514L12.566 12.3589L12.5669 12.3598Z" fill="black"/>
<path d="M57.3798 41.8033C56.5402 45.4206 55.127 48.317 53.4578 50.6315L47.5371 42.283C48.2653 40.6065 48.5563 39.3765 48.5563 39.3765L57.3798 41.8033Z" fill="white"/>
<path d="M53.4542 51.5807L46.9065 42.3483L47.0308 42.0629C47.7277 40.4573 48.0159 39.2614 48.0196 39.2494L48.1521 38.6933L48.7036 38.8443L58.0391 41.412L57.9194 41.9285C57.1331 45.3175 55.7825 48.3538 53.9072 50.9546L53.4551 51.5807H53.4542ZM48.1669 42.2148L53.4533 49.6694C54.9226 47.469 56.0182 44.9602 56.717 42.1937L48.943 40.055C48.8003 40.5356 48.5508 41.2979 48.1669 42.2148Z" fill="url(#paint3_linear_2038_2549)"/>
<path d="M1.28155 66.9096V76.838H0V66.9096H1.28155Z" fill="black"/>
<path d="M3.62362 71.6381C3.62362 70.9016 3.60889 70.2976 3.5647 69.7084H4.69895L4.75787 70.8574H4.80206C5.19978 70.1798 5.86266 69.5464 7.0411 69.5464C8.01331 69.5464 8.74983 70.1356 9.05917 70.9752H9.08863C9.30959 70.5775 9.58947 70.2682 9.88408 70.0472C10.3113 69.7231 10.7826 69.5464 11.4602 69.5464C12.403 69.5464 13.8024 70.1651 13.8024 72.6398V76.838H12.5356V72.8018C12.5356 71.4319 12.0347 70.607 10.9889 70.607C10.2523 70.607 9.67785 71.152 9.4569 71.7854C9.39797 71.9622 9.35378 72.1979 9.35378 72.4335V76.838H8.08696V72.5661C8.08696 71.4319 7.58612 70.607 6.59918 70.607C5.789 70.607 5.19978 71.2551 4.99356 71.9032C4.9199 72.0947 4.89044 72.3157 4.89044 72.5367V76.838H3.62362V71.6381Z" fill="black"/>
<path d="M15.909 71.6381C15.909 70.9016 15.8943 70.2976 15.8501 69.7084H16.9843L17.0433 70.8574H17.0875C17.4852 70.1798 18.1481 69.5464 19.3265 69.5464C20.2987 69.5464 21.0352 70.1356 21.3446 70.9752H21.374C21.595 70.5775 21.8749 70.2682 22.1695 70.0472C22.5967 69.7231 23.068 69.5464 23.7456 69.5464C24.6884 69.5464 26.0878 70.1651 26.0878 72.6398V76.838H24.821V72.8018C24.821 71.4319 24.3201 70.607 23.2743 70.607C22.5377 70.607 21.9633 71.152 21.7423 71.7854C21.6834 71.9622 21.6392 72.1979 21.6392 72.4335V76.838H20.3724V72.5661C20.3724 71.4319 19.8715 70.607 18.8846 70.607C18.0744 70.607 17.4852 71.2551 17.279 71.9032C17.2053 72.0947 17.1758 72.3157 17.1758 72.5367V76.838H15.909V71.6381Z" fill="black"/>
<path d="M34.6462 73.2143C34.6462 75.851 32.8197 77 31.0962 77C29.1665 77 27.6787 75.5859 27.6787 73.3321C27.6787 70.9458 29.2401 69.5464 31.214 69.5464C33.1879 69.5464 34.6462 71.0341 34.6462 73.2143ZM28.9897 73.2879C28.9897 74.8493 29.8883 76.0278 31.1551 76.0278C32.4219 76.0278 33.3205 74.8641 33.3205 73.2585C33.3205 72.0506 32.7165 70.5186 31.1846 70.5186C29.6526 70.5186 28.9897 71.9327 28.9897 73.2879Z" fill="black"/>
<path d="M36.2224 76.838C36.2519 76.3519 36.2813 75.6301 36.2813 74.9966V66.3793H37.5629V70.8574H37.5923C38.049 70.0619 38.8739 69.5464 40.0229 69.5464C41.7905 69.5464 43.0426 71.0194 43.0279 73.1848C43.0279 75.7332 41.4223 77 39.8314 77C38.8003 77 37.9753 76.6023 37.445 75.6595H37.4009L37.3419 76.838H36.2224ZM37.5629 73.9802C37.5629 74.1423 37.5923 74.3043 37.6218 74.4516C37.8722 75.3502 38.6235 75.9689 39.5662 75.9689C40.9214 75.9689 41.7316 74.8641 41.7316 73.229C41.7316 71.8001 40.9951 70.5775 39.6104 70.5775C38.7266 70.5775 37.9017 71.1815 37.6365 72.1684C37.6071 72.3157 37.5629 72.4925 37.5629 72.6987V73.9802Z" fill="black"/>
<path d="M46.1064 67.7051C46.1211 68.147 45.797 68.5005 45.2814 68.5005C44.8248 68.5005 44.5007 68.147 44.5007 67.7051C44.5007 67.2631 44.8395 66.8949 45.3109 66.8949C45.7823 66.8949 46.1064 67.2484 46.1064 67.7051ZM44.6628 76.838V69.7084H45.9591V76.838H44.6628Z" fill="black"/>
<path d="M48.1099 66.3793H49.4061V76.838H48.1099V66.3793Z" fill="black"/>
<path d="M53.029 67.7051C53.0437 68.147 52.7196 68.5005 52.2041 68.5005C51.7474 68.5005 51.4233 68.147 51.4233 67.7051C51.4233 67.2631 51.7621 66.8949 52.2335 66.8949C52.7049 66.8949 53.029 67.2484 53.029 67.7051ZM51.5854 76.838V69.7084H52.8817V76.838H51.5854Z" fill="black"/>
<path d="M55.754 73.5089C55.7834 75.2618 56.9029 75.9836 58.1992 75.9836C59.1272 75.9836 59.687 75.8216 60.1731 75.6153L60.3941 76.5434C59.9374 76.7496 59.1567 76.9853 58.0225 76.9853C55.8276 76.9853 54.5166 75.5417 54.5166 73.391C54.5166 71.2404 55.7834 69.5464 57.8604 69.5464C60.1878 69.5464 60.8065 71.5939 60.8065 72.9049C60.8065 73.1701 60.7771 73.3763 60.7623 73.5089H55.754ZM59.5544 72.5809C59.5692 71.7559 59.2156 70.4744 57.7573 70.4744C56.4463 70.4744 55.8718 71.6823 55.7687 72.5809H59.5544Z" fill="black"/>
<path d="M62.4122 71.9327C62.4122 71.0931 62.3975 70.3713 62.3533 69.7084H63.4875L63.5317 71.1078H63.5906C63.9147 70.1503 64.6954 69.5464 65.5645 69.5464C65.7118 69.5464 65.8149 69.5611 65.9328 69.5906V70.8132C65.8002 70.7837 65.6676 70.769 65.4909 70.769C64.5776 70.769 63.9294 71.4613 63.7527 72.4335C63.7232 72.6103 63.6937 72.8165 63.6937 73.0375V76.838H62.4122V71.9327Z" fill="black"/>
<path d="M100.867 20.7111C99.3747 18.89 97.5307 17.9786 95.3367 17.9786C94.371 17.9786 93.477 18.1544 92.6539 18.5052C91.8309 18.8569 91.1229 19.3338 90.5309 19.9368C89.938 20.5408 89.4721 21.2589 89.1315 22.093C88.7909 22.9271 88.6215 23.8266 88.6215 24.7923C88.6215 25.7581 88.7909 26.6907 89.1315 27.5249C89.4712 28.359 89.9435 29.0835 90.5475 29.6976C91.1505 30.3126 91.8585 30.795 92.6705 31.1458C93.4825 31.4975 94.3599 31.6724 95.3045 31.6724C97.3668 31.6724 99.2219 30.795 100.868 29.0384V36.6762L100.21 36.9063C99.2219 37.2571 98.3003 37.5158 97.4441 37.6797C96.5879 37.8436 95.7427 37.9264 94.9095 37.9264C93.198 37.9264 91.5565 37.6024 89.9877 36.9551C88.418 36.3079 87.0361 35.3974 85.8402 34.2226C84.6433 33.0488 83.684 31.6549 82.9594 30.0419C82.2349 28.4289 81.873 26.6677 81.873 24.7583C81.873 22.8488 82.2293 21.0987 82.9428 19.5078C83.6554 17.9169 84.6102 16.5451 85.807 15.3925C87.0029 14.2407 88.3913 13.3403 89.9711 12.6931C91.551 12.0459 93.2082 11.7218 94.9418 11.7218C95.9296 11.7218 96.9009 11.8258 97.8556 12.0348C98.8104 12.2438 99.8148 12.567 100.868 13.0061V20.7092L100.867 20.7111Z" fill="black"/>
<path d="M103.731 28.6444C103.731 27.3932 103.984 26.2249 104.488 25.1385C104.993 24.0521 105.695 23.1085 106.595 22.3075C107.494 21.5065 108.564 20.8759 109.804 20.4146C111.043 19.9534 112.399 19.7232 113.87 19.7232C115.34 19.7232 116.662 19.9488 117.902 20.3981C119.141 20.8483 120.218 21.4734 121.128 22.2744C122.039 23.0762 122.747 24.03 123.251 25.1385C123.756 26.247 124.008 27.4705 124.008 28.8092C124.008 30.1478 123.75 31.3714 123.235 32.4798C122.719 33.5883 122.011 34.543 121.111 35.344C120.211 36.1459 119.13 36.7655 117.869 37.2037C116.607 37.6429 115.24 37.862 113.77 37.862C112.3 37.862 110.982 37.642 109.754 37.2037C108.525 36.7646 107.466 36.1394 106.577 35.3274C105.689 34.5154 104.992 33.5441 104.486 32.4135C103.981 31.2839 103.729 30.0272 103.729 28.6444H103.731ZM110.019 28.7107C110.019 29.2815 110.123 29.8026 110.332 30.2739C110.541 30.7462 110.815 31.1578 111.156 31.5085C111.495 31.8602 111.901 32.1337 112.374 32.3316C112.845 32.5295 113.345 32.6281 113.871 32.6281C114.398 32.6281 114.897 32.5295 115.369 32.3316C115.841 32.1337 116.247 31.8602 116.587 31.5085C116.927 31.1578 117.201 30.7462 117.41 30.2739C117.619 29.8026 117.723 29.2916 117.723 28.7429C117.723 28.1942 117.619 27.7173 117.41 27.245C117.201 26.7736 116.927 26.3621 116.587 26.0104C116.247 25.6596 115.841 25.3853 115.369 25.1873C114.897 24.9894 114.398 24.8909 113.871 24.8909C113.345 24.8909 112.845 24.9894 112.374 25.1873C111.901 25.3853 111.495 25.6596 111.156 26.0104C110.815 26.3621 110.541 26.7672 110.332 27.2284C110.123 27.6897 110.019 28.1831 110.019 28.7097V28.7107Z" fill="black"/>
<path d="M133.392 20.3483V29.8624C133.392 31.9477 134.401 32.9899 136.421 32.9899C138.441 32.9899 139.45 31.9477 139.45 29.8624V20.3483H145.408V31.0141C145.408 33.2965 144.656 35.0089 143.154 36.1496C141.65 37.2903 139.406 37.8611 136.422 37.8611C133.438 37.8611 131.192 37.2903 129.69 36.1496C128.187 35.0089 127.435 33.2965 127.435 31.0141V20.3483H133.394H133.392Z" fill="black"/>
<path d="M149.458 20.3483H155.416V23.114C156.052 22.105 156.832 21.3316 157.754 20.793C158.675 20.2554 159.75 19.9865 160.98 19.9865H161.49C161.676 19.9865 161.89 20.0086 162.131 20.0528V25.748C161.341 25.353 160.485 25.1551 159.564 25.1551C158.181 25.1551 157.144 25.5666 156.453 26.3897C155.761 27.2128 155.416 28.4142 155.416 29.9941V37.2369H149.458V20.3483Z" fill="black"/>
<path d="M172.072 25.3199V37.2369H166.114V25.3199H164.139V20.3493H166.114V15.2792H172.072V20.3493H175.463V25.3199H172.072Z" fill="black"/>
<path d="M177.768 13.8632C177.768 13.402 177.855 12.9693 178.031 12.5633C178.207 12.1573 178.448 11.801 178.755 11.4935C179.063 11.186 179.419 10.9448 179.825 10.7689C180.231 10.5931 180.665 10.5056 181.125 10.5056C181.586 10.5056 182.019 10.594 182.425 10.7689C182.831 10.9448 183.187 11.186 183.495 11.4935C183.802 11.801 184.044 12.1573 184.22 12.5633C184.395 12.9693 184.483 13.4029 184.483 13.8632C184.483 14.3236 184.394 14.7581 184.22 15.1632C184.044 15.5692 183.802 15.9264 183.495 16.233C183.187 16.5405 182.831 16.7817 182.425 16.9576C182.019 17.1334 181.586 17.2209 181.125 17.2209C180.665 17.2209 180.23 17.1334 179.825 16.9576C179.419 16.7817 179.062 16.5405 178.755 16.233C178.448 15.9255 178.207 15.5692 178.031 15.1632C177.855 14.7572 177.768 14.3236 177.768 13.8632ZM184.121 20.3483V37.2369H178.163V20.3483H184.121Z" fill="black"/>
<path d="M193.569 29.797C193.569 32.3647 194.776 33.6491 197.19 33.6491C198.484 33.6491 199.461 33.1224 200.119 32.0692H205.881C204.717 35.9323 201.81 37.8629 197.157 37.8629C195.73 37.8629 194.424 37.6493 193.239 37.2212C192.054 36.7931 191.039 36.1845 190.194 35.3937C189.349 34.6038 188.696 33.6601 188.235 32.5627C187.773 31.4653 187.543 30.2371 187.543 28.8755C187.543 27.5138 187.762 26.2037 188.201 25.0732C188.641 23.9426 189.266 22.9823 190.078 22.1924C190.89 21.4025 191.872 20.793 193.024 20.3649C194.177 19.9368 195.476 19.7232 196.925 19.7232C198.373 19.7232 199.635 19.9368 200.777 20.3649C201.917 20.793 202.883 21.4135 203.674 22.2246C204.464 23.0367 205.067 24.03 205.485 25.2039C205.902 26.3786 206.11 27.7007 206.11 29.171V29.7961H193.567L193.569 29.797ZM200.548 26.34C200.35 25.5059 199.944 24.8365 199.33 24.332C198.715 23.8275 197.97 23.5752 197.092 23.5752C196.171 23.5752 195.419 23.8174 194.838 24.2998C194.256 24.7831 193.888 25.4635 193.735 26.3409H200.549L200.548 26.34Z" fill="black"/>
<path d="M209.502 20.3483H215.46V23.114C216.096 22.105 216.876 21.3316 217.798 20.793C218.719 20.2554 219.795 19.9865 221.024 19.9865H221.534C221.72 19.9865 221.934 20.0086 222.175 20.0528V25.748C221.386 25.353 220.529 25.1551 219.608 25.1551C218.225 25.1551 217.188 25.5666 216.497 26.3897C215.805 27.2128 215.46 28.4142 215.46 29.9941V37.2369H209.502V20.3483Z" fill="black"/>
<path d="M232.481 24.0024L224.744 12.4141H232.711L236.068 18.8339L240.216 12.4141H248.182L239.985 24.0024L249.236 37.2369H241.368L236.397 29.1388L230.57 37.2369H222.768L232.479 24.0024H232.481Z" fill="url(#paint4_linear_2038_2549)"/>
<path d="M257.236 45.6645H251.277V20.3483H257.236V22.2246C258.508 20.6227 260.243 19.8217 262.438 19.8217C263.645 19.8217 264.77 20.0574 265.812 20.5297C266.854 21.002 267.759 21.6437 268.528 22.4557C269.295 23.2677 269.894 24.2225 270.322 25.3199C270.75 26.4173 270.964 27.5911 270.964 28.8423C270.964 30.0935 270.75 31.2572 270.322 32.3316C269.894 33.4069 269.302 34.3506 268.544 35.1626C267.787 35.9746 266.893 36.6108 265.861 37.0721C264.829 37.5333 263.71 37.7635 262.504 37.7635C260.397 37.7635 258.641 37.0389 257.237 35.5907V45.6645H257.236ZM264.742 28.8423C264.742 28.3157 264.648 27.8167 264.462 27.3444C264.275 26.873 264.006 26.4615 263.656 26.1098C263.304 25.759 262.892 25.4792 262.421 25.2702C261.949 25.0621 261.439 24.9571 260.89 24.9571C260.341 24.9571 259.87 25.0557 259.409 25.2536C258.947 25.4515 258.547 25.7259 258.207 26.0767C257.866 26.4284 257.592 26.8399 257.384 27.3113C257.175 27.7836 257.071 28.2826 257.071 28.8092C257.071 29.3358 257.17 29.8293 257.367 30.2905C257.565 30.7518 257.839 31.1522 258.191 31.492C258.541 31.8326 258.953 32.107 259.425 32.315C259.897 32.524 260.396 32.6281 260.923 32.6281C261.45 32.6281 261.943 32.5295 262.404 32.3316C262.866 32.1337 263.265 31.8602 263.606 31.5085C263.946 31.1578 264.22 30.7518 264.429 30.2905C264.637 29.8293 264.742 29.3468 264.742 28.8423Z" fill="url(#paint5_linear_2038_2549)"/>
<path d="M279.72 29.797C279.72 32.3647 280.927 33.6491 283.341 33.6491C284.636 33.6491 285.612 33.1224 286.271 32.0692H292.032C290.868 35.9323 287.961 37.8629 283.308 37.8629C281.881 37.8629 280.576 37.6493 279.391 37.2212C278.206 36.7931 277.19 36.1845 276.345 35.3937C275.5 34.6038 274.847 33.6601 274.386 32.5627C273.925 31.4653 273.695 30.2371 273.695 28.8755C273.695 27.5138 273.914 26.2037 274.353 25.0732C274.792 23.9426 275.417 22.9823 276.229 22.1924C277.041 21.4025 278.024 20.793 279.175 20.3649C280.328 19.9368 281.628 19.7232 283.076 19.7232C284.524 19.7232 285.786 19.9368 286.928 20.3649C288.069 20.793 289.035 21.4135 289.825 22.2246C290.615 23.0367 291.218 24.03 291.636 25.2039C292.053 26.3786 292.261 27.7007 292.261 29.171V29.7961H279.718L279.72 29.797ZM286.7 26.34C286.502 25.5059 286.096 24.8365 285.482 24.332C284.867 23.8275 284.121 23.5752 283.244 23.5752C282.322 23.5752 281.57 23.8174 280.989 24.2998C280.407 24.7831 280.04 25.4635 279.886 26.3409H286.701L286.7 26.34Z" fill="url(#paint6_linear_2038_2549)"/>
<path d="M295.653 20.3483H301.612V23.114C302.248 22.105 303.028 21.3316 303.949 20.793C304.871 20.2554 305.946 19.9865 307.175 19.9865H307.685C307.871 19.9865 308.086 20.0086 308.327 20.0528V25.748C307.537 25.353 306.681 25.1551 305.759 25.1551C304.376 25.1551 303.34 25.5666 302.648 26.3897C301.957 27.2128 301.612 28.4142 301.612 29.9941V37.2369H295.653V20.3483Z" fill="url(#paint7_linear_2038_2549)"/>
<path d="M318.269 25.3199V37.2369H312.31V25.3199H310.336V20.3493H312.31V15.2792H318.269V20.3493H321.66V25.3199H318.269Z" fill="url(#paint8_linear_2038_2549)"/>
</g>
<defs>
<linearGradient id="paint0_linear_2038_2549" x1="3.40454" y1="54.989" x2="20.9071" y2="54.989" gradientUnits="userSpaceOnUse">
<stop stop-color="#FF512F"/>
<stop offset="1" stop-color="#DD2476"/>
</linearGradient>
<linearGradient id="paint1_linear_2038_2549" x1="3.50488" y1="30.5943" x2="61.6149" y2="30.5943" gradientUnits="userSpaceOnUse">
<stop stop-color="#FF512F"/>
<stop offset="1" stop-color="#DD2476"/>
</linearGradient>
<linearGradient id="paint2_linear_2038_2549" x1="44.6602" y1="5.94928" x2="61.6297" y2="5.94928" gradientUnits="userSpaceOnUse">
<stop stop-color="#FF512F"/>
<stop offset="1" stop-color="#DD2476"/>
</linearGradient>
<linearGradient id="paint3_linear_2038_2549" x1="46.9065" y1="45.137" x2="58.0381" y2="45.137" gradientUnits="userSpaceOnUse">
<stop stop-color="#FF512F"/>
<stop offset="1" stop-color="#DD2476"/>
</linearGradient>
<linearGradient id="paint4_linear_2038_2549" x1="222.768" y1="24.8255" x2="249.236" y2="24.8255" gradientUnits="userSpaceOnUse">
<stop stop-color="#FF512F"/>
<stop offset="1" stop-color="#DD2476"/>
</linearGradient>
<linearGradient id="paint5_linear_2038_2549" x1="251.277" y1="32.7431" x2="270.964" y2="32.7431" gradientUnits="userSpaceOnUse">
<stop stop-color="#FF512F"/>
<stop offset="1" stop-color="#DD2476"/>
</linearGradient>
<linearGradient id="paint6_linear_2038_2549" x1="273.696" y1="28.7926" x2="292.262" y2="28.7926" gradientUnits="userSpaceOnUse">
<stop stop-color="#FF512F"/>
<stop offset="1" stop-color="#DD2476"/>
</linearGradient>
<linearGradient id="paint7_linear_2038_2549" x1="295.653" y1="28.6112" x2="308.327" y2="28.6112" gradientUnits="userSpaceOnUse">
<stop stop-color="#FF512F"/>
<stop offset="1" stop-color="#DD2476"/>
</linearGradient>
<linearGradient id="paint8_linear_2038_2549" x1="310.335" y1="26.258" x2="321.66" y2="26.258" gradientUnits="userSpaceOnUse">
<stop stop-color="#FF512F"/>
<stop offset="1" stop-color="#DD2476"/>
</linearGradient>
<clipPath id="clip0_2038_2549">
<rect width="321.66" height="77" fill="white"/>
</clipPath>
</defs>
</svg>
