<svg width="323" height="77" viewBox="0 0 323 77" fill="none" xmlns="http://www.w3.org/2000/svg">
<g clip-path="url(#clip0_1894_62)">
<path d="M20.1863 56.2456L16.9229 60.7182H4.50879L12.6212 49.6261C14.7013 52.2988 17.2733 54.536 20.1863 56.2456Z" fill="white"/>
<path d="M17.2058 61.2706H3.41882L12.6074 48.7064L13.0594 49.2873C15.0887 51.8946 17.5811 54.0747 20.4674 55.7697L20.9934 56.0781L17.2049 61.2706H17.2058ZM5.5997 60.1658H16.6409L19.383 56.4077C16.8055 54.8186 14.5423 52.8484 12.6416 50.5376L5.5997 60.1658Z" fill="url(#paint0_linear_1894_62)"/>
<path d="M60.7983 60.6261L49.3697 60.6363L46.5889 56.9776L41.2971 50.0165L32.8435 38.8968L25.3597 49.1538C22.2766 47.5132 19.7629 45.114 18.1006 42.1338L26.6355 30.4645L18.0368 18.7841L12.6175 11.4235L4.61414 0.552394H18.1653L21.0248 4.59684L25.5095 10.9374L33.1356 21.7229L40.7322 11.1676C42.7291 12.2714 45.6052 14.4598 47.6779 18.5521L39.1587 30.2399L47.7352 42.283L53.6806 50.6315L60.7983 60.6261Z" fill="white"/>
<path d="M49.0942 61.1887L32.8527 39.8239L25.5243 49.8673L25.0981 49.6409C21.8929 47.9358 19.3062 45.4325 17.6153 42.4017L17.4433 42.0933L25.9477 30.4654L3.51953 0H18.4529L33.1393 20.7691L40.5686 10.4458L41.0003 10.6842C43.0989 11.8442 46.0471 14.1081 48.1725 18.3026L48.325 18.6037L39.841 30.2436L61.8707 61.1776L49.0942 61.1887ZM32.8343 37.9697L49.6452 60.0839L59.725 60.0747L38.4755 30.2362L47.028 18.5033C45.1882 15.0223 42.7587 13.0135 40.8903 11.8967L33.1319 22.6776L17.8778 1.10479H5.70873L27.3224 30.4636L18.7598 42.1707C20.2695 44.7457 22.4836 46.8992 25.1989 48.4348L32.8343 37.9697Z" fill="url(#paint1_linear_1894_62)"/>
<path d="M60.7983 0.552394L53.2128 10.9586C52.9863 10.6483 52.745 10.3344 52.4889 10.0186C50.5752 7.66078 48.2483 5.74397 45.6606 4.32064L48.3731 0.552394H60.7983Z" fill="white"/>
<path d="M53.2138 11.8986L52.7645 11.2836C52.5399 10.9751 52.3013 10.6667 52.0582 10.3657C50.2138 8.09349 47.972 6.22272 45.3935 4.80398L44.8472 4.50385L48.0884 0H61.8865L53.2129 11.8986H53.2138ZM46.4706 4.14387C48.9482 5.59115 51.1161 7.44811 52.9208 9.67149C53.0169 9.78934 53.1112 9.90902 53.2055 10.0296L59.7112 1.10571H48.6589L46.4715 4.14479L46.4706 4.14387Z" fill="url(#paint2_linear_1894_62)"/>
<path d="M56.7767 18.7878L48.7586 21.0904C48.435 20.1725 48.0708 19.3283 47.6779 18.5521C45.6052 14.4598 42.7291 12.2714 40.7322 11.1676C39.3621 10.4108 38.4052 10.164 38.4052 10.164C32.7991 8.84198 28.6121 9.46803 25.5095 10.9374L21.0248 4.59684C24.6821 2.75645 28.5021 1.82566 31.576 1.50159C36.5193 0.98142 41.4366 1.99414 45.6606 4.32064C48.2483 5.74397 50.5752 7.66078 52.4889 10.0186C52.745 10.3344 52.9863 10.6483 53.2128 10.9586C56.2729 15.1457 56.7767 18.7878 56.7767 18.7878Z" fill="white"/>
<path d="M48.4092 21.7662L48.2354 21.2736C47.9322 20.4146 47.5781 19.5824 47.1824 18.8007C45.1846 14.8566 42.4259 12.7354 40.4632 11.65C39.2281 10.9678 38.3406 10.7183 38.2703 10.6989C33.4102 9.55457 29.1973 9.80223 25.7481 11.4355L25.3256 11.6353L20.202 4.39153L20.7752 4.10336C24.0479 2.45631 27.8633 1.33679 31.5187 0.951959C36.5572 0.421661 41.5412 1.41965 45.9306 3.8373C48.6348 5.32508 50.9876 7.28792 52.9217 9.67149C53.1777 9.98636 53.4264 10.3104 53.6631 10.6336C56.7694 14.8842 57.3065 18.5577 57.3278 18.7123L57.3934 19.1856L48.4101 21.7652L48.4092 21.7662ZM32.6059 8.88894C34.4679 8.88894 36.4463 9.13475 38.5338 9.6273L38.5449 9.63006C38.5865 9.64111 39.5868 9.9035 41.0022 10.6851C43.1017 11.8452 46.049 14.1091 48.1744 18.3045C48.5155 18.9784 48.8271 19.6873 49.1035 20.4174L56.1361 18.3975C55.8911 17.3065 55.0739 14.4433 52.7645 11.2836C52.5389 10.9751 52.3013 10.6667 52.0573 10.3657C50.2129 8.09349 47.971 6.22272 45.3926 4.80398C41.2028 2.49682 36.4454 1.54394 31.6343 2.0503C29.6855 2.25561 25.8969 2.88534 21.8522 4.80675L25.6981 10.2432C27.7708 9.33914 30.0802 8.88709 32.6059 8.88709V8.88894Z" fill="#211D1D"/>
<path d="M46.5889 56.9776C43.0333 59.0251 40.0592 59.525 40.0592 59.525C39.8354 59.5665 39.6126 59.607 39.3917 59.6447C32.4571 60.837 25.7092 59.49 20.1863 56.2456C17.2732 54.536 14.7013 52.2988 12.6212 49.6261C9.83752 46.0521 7.93492 41.7011 7.27853 36.7996C5.61259 24.3596 9.697 16.2882 10.4458 14.9349C10.5448 14.7563 10.64 14.5758 10.7343 14.3945C11.2917 13.3256 11.9241 12.3368 12.6175 11.4235L18.0368 18.7841C17.4184 20.1412 17.1919 21.0904 17.1919 21.0904C15.7672 26.2102 15.6359 31.0583 15.9447 34.9094C16.1583 37.572 16.9117 40.0016 18.1006 42.1338C19.7629 45.114 22.2766 47.5132 25.3597 49.1538C27.3585 50.219 29.5976 50.9638 31.9994 51.3413C33.9584 51.6488 35.9701 51.6553 37.9495 51.2612C39.1929 51.0136 40.3042 50.5781 41.2971 50.0165L46.5889 56.9776Z" fill="white"/>
<path d="M34.4291 60.6215C29.3 60.6215 24.2763 59.2893 19.9044 56.7216C16.8961 54.9558 14.2983 52.6827 12.183 49.9649C9.25885 46.2105 7.37289 41.6836 6.72851 36.8732C5.04871 24.3329 9.12572 16.1769 9.95961 14.6688C10.0641 14.4801 10.1649 14.2877 10.2416 14.1413C10.7981 13.0733 11.449 12.0477 12.1747 11.0911L12.624 10.4992L18.6757 18.7188L18.5417 19.0134C17.9565 20.2977 17.7337 21.211 17.7309 21.2193L17.7263 21.2386C16.53 25.5362 16.1167 30.1211 16.4976 34.8662C16.7001 37.3897 17.4027 39.7447 18.5851 41.8659C20.1716 44.7098 22.6048 47.0621 25.6205 48.6668C27.586 49.7145 29.7613 50.4308 32.0855 50.7954C34.0787 51.1084 36.0146 51.0826 37.8404 50.7189C38.9572 50.4971 40.0278 50.0984 41.0226 49.5359L41.445 49.2965L47.4089 57.1424L46.8653 57.4554C43.2644 59.5287 40.2756 60.048 40.1508 60.0691C39.9335 60.1096 39.7079 60.1502 39.4842 60.1888C37.8007 60.4779 36.108 60.6215 34.4281 60.6215H34.4291ZM12.6194 12.3598C12.1063 13.0899 11.6394 13.8577 11.2271 14.6486C11.1485 14.8005 11.0431 15.0012 10.9322 15.201C10.1269 16.6556 6.19508 24.5281 7.82866 36.7259C8.44715 41.343 10.2555 45.6866 13.0594 49.2873C15.0887 51.8946 17.5811 54.0747 20.4683 55.7697C26.0458 59.0463 32.7326 60.2284 39.2974 59.1006C39.5166 59.0629 39.7366 59.0233 39.9575 58.9818C39.9927 58.9754 42.5896 58.5206 45.7624 56.8054L41.1418 50.7282C40.1665 51.2281 39.131 51.589 38.0577 51.8035C36.1033 52.1929 34.0362 52.2205 31.9126 51.8873C29.4655 51.5024 27.1727 50.7475 25.0972 49.6409C21.893 47.9358 19.3053 45.4325 17.6153 42.4017C16.3543 40.1406 15.6064 37.6346 15.391 34.9527C14.9999 30.0815 15.4252 25.3705 16.6539 20.9505C16.6807 20.8418 16.8896 20.0224 17.399 18.8514L12.6185 12.3589L12.6194 12.3598Z" fill="#211D1D"/>
<path d="M57.619 41.8033C56.7758 45.4206 55.3567 48.317 53.6806 50.6315L47.7352 42.283C48.4665 40.6065 48.7586 39.3765 48.7586 39.3765L57.619 41.8033Z" fill="white"/>
<path d="M53.6769 51.5807L47.1019 42.3483L47.2267 42.0629C47.9266 40.4573 48.2159 39.2614 48.2196 39.2494L48.3528 38.6933L48.9065 38.8443L58.2809 41.412L58.1607 41.9285C57.3712 45.3175 56.015 48.3538 54.1318 50.9546L53.6778 51.5807H53.6769ZM48.3676 42.2148L53.676 49.6694C55.1515 47.469 56.2516 44.9602 56.9533 42.1937L49.1469 40.055C49.0036 40.5356 48.7531 41.2979 48.3676 42.2148Z" fill="url(#paint3_linear_1894_62)"/>
<path d="M1.28689 66.9096V76.838H0V66.9096H1.28689Z" fill="white"/>
<path d="M3.63876 71.6381C3.63876 70.9016 3.62397 70.2976 3.57959 69.7084H4.71856L4.77773 70.8574H4.82211C5.22149 70.1798 5.88712 69.5464 7.07047 69.5464C8.04674 69.5464 8.78633 70.1356 9.09696 70.9752H9.12654C9.34842 70.5775 9.62947 70.2682 9.9253 70.0472C10.3543 69.7231 10.8276 69.5464 11.508 69.5464C12.4547 69.5464 13.8599 70.1651 13.8599 72.6398V76.838H12.5878V72.8018C12.5878 71.4319 12.0849 70.607 11.0347 70.607C10.2951 70.607 9.71822 71.152 9.49634 71.7854C9.43717 71.9622 9.3928 72.1979 9.3928 72.4336V76.838H8.1207V72.5661C8.1207 71.4319 7.61777 70.607 6.62672 70.607C5.81316 70.607 5.22149 71.2551 5.0144 71.9033C4.94044 72.0948 4.91086 72.3157 4.91086 72.5367V76.838H3.63876V71.6381Z" fill="white"/>
<path d="M15.9752 71.6381C15.9752 70.9016 15.9604 70.2976 15.916 69.7084H17.055L17.1142 70.8574H17.1585C17.5579 70.1798 18.2235 69.5464 19.4069 69.5464C20.3832 69.5464 21.1228 70.1356 21.4334 70.9752H21.463C21.6848 70.5775 21.9659 70.2682 22.2617 70.0472C22.6907 69.7231 23.164 69.5464 23.8445 69.5464C24.7911 69.5464 26.1964 70.1651 26.1964 72.6398V76.838H24.9243V72.8018C24.9243 71.4319 24.4213 70.607 23.3711 70.607C22.6315 70.607 22.0546 71.152 21.8328 71.7854C21.7736 71.9622 21.7292 72.1979 21.7292 72.4336V76.838H20.4571V72.5661C20.4571 71.4319 19.9542 70.607 18.9631 70.607C18.1496 70.607 17.5579 71.2551 17.3508 71.9033C17.2769 72.0948 17.2473 72.3157 17.2473 72.5367V76.838H15.9752V71.6381Z" fill="white"/>
<path d="M34.7905 73.2143C34.7905 75.851 32.9563 77 31.2257 77C29.2879 77 27.7939 75.5859 27.7939 73.3321C27.7939 70.9458 29.3619 69.5464 31.344 69.5464C33.3261 69.5464 34.7905 71.0342 34.7905 73.2143ZM29.1104 73.2879C29.1104 74.8494 30.0127 76.0278 31.2848 76.0278C32.5569 76.0278 33.4592 74.8641 33.4592 73.2585C33.4592 72.0506 32.8528 70.5186 31.3144 70.5186C29.7761 70.5186 29.1104 71.9327 29.1104 73.2879Z" fill="white"/>
<path d="M36.3732 76.838C36.4028 76.3519 36.4323 75.6301 36.4323 74.9967V66.3793H37.7192V70.8574H37.7488C38.2074 70.0619 39.0357 69.5464 40.1895 69.5464C41.9645 69.5464 43.2218 71.0194 43.207 73.1848C43.207 75.7332 41.5947 77 39.9972 77C38.9617 77 38.1334 76.6023 37.6009 75.6595H37.5565L37.4974 76.838H36.3732ZM37.7192 73.9802C37.7192 74.1423 37.7488 74.3043 37.7784 74.4516C38.0299 75.3502 38.7842 75.9689 39.7309 75.9689C41.0918 75.9689 41.9053 74.8641 41.9053 73.229C41.9053 71.8001 41.1657 70.5775 39.7753 70.5775C38.8878 70.5775 38.0594 71.1815 37.7932 72.1684C37.7636 72.3157 37.7192 72.4925 37.7192 72.6987V73.9802Z" fill="white"/>
<path d="M46.2986 67.7051C46.3134 68.147 45.988 68.5005 45.4702 68.5005C45.0117 68.5005 44.6863 68.147 44.6863 67.7051C44.6863 67.2631 45.0265 66.8949 45.4998 66.8949C45.9732 66.8949 46.2986 67.2484 46.2986 67.7051ZM44.849 76.838V69.7084H46.1507V76.838H44.849Z" fill="white"/>
<path d="M48.3103 66.3793H49.612V76.838H48.3103V66.3793Z" fill="white"/>
<path d="M53.2498 67.7051C53.2646 68.147 52.9391 68.5005 52.4214 68.5005C51.9629 68.5005 51.6375 68.147 51.6375 67.7051C51.6375 67.2631 51.9777 66.8949 52.451 66.8949C52.9243 66.8949 53.2498 67.2484 53.2498 67.7051ZM51.8002 76.838V69.7084H53.1018V76.838H51.8002Z" fill="white"/>
<path d="M55.9863 73.5089C56.0159 75.2618 57.1401 75.9836 58.4417 75.9836C59.3736 75.9836 59.9357 75.8216 60.4239 75.6153L60.6457 76.5434C60.1872 76.7496 59.4032 76.9853 58.2642 76.9853C56.0602 76.9853 54.7438 75.5417 54.7438 73.391C54.7438 71.2404 56.0159 69.5464 58.1015 69.5464C60.4386 69.5464 61.0599 71.5939 61.0599 72.9049C61.0599 73.1701 61.0303 73.3763 61.0155 73.5089H55.9863ZM59.8026 72.5809C59.8174 71.756 59.4624 70.4744 57.998 70.4744C56.6815 70.4744 56.1046 71.6823 56.0011 72.5809H59.8026Z" fill="white"/>
<path d="M62.6722 71.9327C62.6722 71.0931 62.6574 70.3713 62.613 69.7084H63.752L63.7964 71.1078H63.8556C64.181 70.1503 64.9649 69.5464 65.8377 69.5464C65.9856 69.5464 66.0891 69.5611 66.2075 69.5906V70.8132C66.0743 70.7837 65.9412 70.769 65.7637 70.769C64.8466 70.769 64.1958 71.4613 64.0183 72.4336C63.9887 72.6103 63.9591 72.8165 63.9591 73.0375V76.838H62.6722V71.9327Z" fill="white"/>
<path d="M101.287 20.7111C99.7887 18.89 97.937 17.9786 95.7339 17.9786C94.7641 17.9786 93.8664 18.1544 93.0399 18.5052C92.2134 18.8569 91.5025 19.3338 90.908 19.9368C90.3127 20.5408 89.8449 21.2589 89.5028 22.093C89.1607 22.9271 88.9906 23.8266 88.9906 24.7923C88.9906 25.7581 89.1607 26.6907 89.5028 27.5249C89.8439 28.359 90.3182 29.0835 90.9247 29.6976C91.5302 30.3126 92.2412 30.795 93.0566 31.1458C93.872 31.4975 94.753 31.6724 95.7015 31.6724C97.7724 31.6724 99.6352 30.795 101.288 29.0384V36.6762L100.627 36.9063C99.6352 37.2571 98.7098 37.5158 97.8501 37.6797C96.9903 37.8436 96.1416 37.9264 95.3049 37.9264C93.5863 37.9264 91.9379 37.6024 90.3626 36.9551C88.7863 36.3079 87.3987 35.3974 86.1978 34.2226C84.9959 33.0488 84.0326 31.6549 83.305 30.0419C82.5774 28.4289 82.2141 26.6677 82.2141 24.7583C82.2141 22.8488 82.5719 21.0987 83.2884 19.5078C84.0039 17.9169 84.9626 16.5451 86.1645 15.3925C87.3654 14.2407 88.7595 13.3403 90.3459 12.6931C91.9324 12.0459 93.5965 11.7218 95.3373 11.7218C96.3293 11.7218 97.3046 11.8258 98.2633 12.0348C99.222 12.2438 100.231 12.567 101.288 13.0061V20.7092L101.287 20.7111Z" fill="white"/>
<path d="M104.163 28.6444C104.163 27.3932 104.417 26.2249 104.923 25.1385C105.43 24.0521 106.135 23.1085 107.039 22.3075C107.942 21.5065 109.016 20.8759 110.261 20.4146C111.506 19.9534 112.868 19.7232 114.344 19.7232C115.82 19.7232 117.148 19.9488 118.393 20.3981C119.638 20.8483 120.718 21.4734 121.633 22.2744C122.547 23.0762 123.258 24.03 123.765 25.1385C124.271 26.247 124.524 27.4705 124.524 28.8092C124.524 30.1478 124.266 31.3714 123.748 32.4798C123.23 33.5883 122.519 34.543 121.616 35.344C120.712 36.1459 119.627 36.7655 118.36 37.2037C117.093 37.6429 115.721 37.862 114.244 37.862C112.768 37.862 111.445 37.642 110.212 37.2037C108.977 36.7646 107.914 36.1394 107.021 35.3274C106.129 34.5154 105.429 33.5441 104.922 32.4135C104.414 31.2839 104.162 30.0272 104.162 28.6444H104.163ZM110.478 28.7107C110.478 29.2815 110.582 29.8026 110.792 30.2739C111.001 30.7462 111.277 31.1578 111.619 31.5085C111.96 31.8602 112.367 32.1337 112.842 32.3316C113.315 32.5295 113.817 32.6281 114.346 32.6281C114.875 32.6281 115.376 32.5295 115.85 32.3316C116.323 32.1337 116.731 31.8602 117.073 31.5085C117.414 31.1578 117.69 30.7462 117.9 30.2739C118.109 29.8026 118.214 29.2916 118.214 28.7429C118.214 28.1942 118.109 27.7173 117.9 27.245C117.69 26.7736 117.414 26.3621 117.073 26.0104C116.731 25.6596 116.323 25.3853 115.85 25.1873C115.376 24.9894 114.875 24.8909 114.346 24.8909C113.817 24.8909 113.315 24.9894 112.842 25.1873C112.367 25.3853 111.96 25.6596 111.619 26.0104C111.277 26.3621 111.001 26.7672 110.792 27.2284C110.582 27.6897 110.478 28.1831 110.478 28.7097V28.7107Z" fill="white"/>
<path d="M133.948 20.3483V29.8624C133.948 31.9477 134.961 32.9899 136.989 32.9899C139.018 32.9899 140.031 31.9477 140.031 29.8624V20.3483H146.014V31.0141C146.014 33.2965 145.259 35.0089 143.75 36.1496C142.24 37.2903 139.987 37.8611 136.99 37.8611C133.994 37.8611 131.739 37.2903 130.23 36.1496C128.721 35.0089 127.966 33.2965 127.966 31.0141V20.3483H133.95H133.948Z" fill="white"/>
<path d="M150.08 20.3483H156.064V23.114C156.702 22.105 157.485 21.3316 158.411 20.793C159.336 20.2554 160.416 19.9865 161.65 19.9865H162.162C162.349 19.9865 162.565 20.0086 162.807 20.0528V25.748C162.014 25.353 161.154 25.1551 160.228 25.1551C158.84 25.1551 157.799 25.5666 157.104 26.3897C156.41 27.2128 156.064 28.4142 156.064 29.9941V37.2369H150.08V20.3483Z" fill="white"/>
<path d="M172.789 25.3199V37.2369H166.806V25.3199H164.823V20.3493H166.806V15.2792H172.789V20.3493H176.194V25.3199H172.789Z" fill="white"/>
<path d="M178.508 13.8632C178.508 13.402 178.596 12.9693 178.773 12.5633C178.949 12.1573 179.191 11.801 179.5 11.4935C179.809 11.186 180.167 10.9448 180.575 10.7689C180.982 10.5931 181.418 10.5056 181.88 10.5056C182.342 10.5056 182.778 10.594 183.185 10.7689C183.593 10.9448 183.951 11.186 184.26 11.4935C184.567 11.801 184.811 12.1573 184.987 12.5633C185.164 12.9693 185.252 13.4029 185.252 13.8632C185.252 14.3236 185.163 14.7581 184.987 15.1632C184.811 15.5692 184.568 15.9264 184.26 16.233C183.951 16.5405 183.593 16.7817 183.185 16.9576C182.778 17.1334 182.342 17.2209 181.88 17.2209C181.418 17.2209 180.981 17.1334 180.575 16.9576C180.167 16.7817 179.808 16.5405 179.5 16.233C179.191 15.9255 178.949 15.5692 178.773 15.1632C178.596 14.7572 178.508 14.3236 178.508 13.8632ZM184.888 20.3483V37.2369H178.905V20.3483H184.888Z" fill="white"/>
<path d="M194.375 29.797C194.375 32.3647 195.587 33.6491 198.011 33.6491C199.311 33.6491 200.292 33.1224 200.953 32.0692H206.739C205.57 35.9323 202.651 37.8629 197.978 37.8629C196.545 37.8629 195.234 37.6493 194.044 37.2212C192.855 36.7931 191.835 36.1845 190.986 35.3937C190.138 34.6038 189.482 33.6601 189.019 32.5627C188.556 31.4653 188.325 30.2371 188.325 28.8755C188.325 27.5138 188.545 26.2037 188.986 25.0732C189.427 23.9426 190.054 22.9823 190.87 22.1924C191.685 21.4025 192.672 20.793 193.828 20.3649C194.986 19.9368 196.291 19.7232 197.745 19.7232C199.199 19.7232 200.467 19.9368 201.613 20.3649C202.759 20.793 203.728 21.4135 204.523 22.2246C205.316 23.0367 205.921 24.03 206.341 25.2039C206.76 26.3786 206.969 27.7007 206.969 29.171V29.7961H194.374L194.375 29.797ZM201.384 26.34C201.185 25.5059 200.777 24.8365 200.161 24.332C199.543 23.8275 198.794 23.5752 197.913 23.5752C196.988 23.5752 196.233 23.8174 195.649 24.2998C195.065 24.7831 194.696 25.4635 194.542 26.3409H201.385L201.384 26.34Z" fill="white"/>
<path d="M210.375 20.3483H216.358V23.114C216.997 22.105 217.78 21.3316 218.705 20.793C219.631 20.2554 220.71 19.9865 221.945 19.9865H222.457C222.644 19.9865 222.859 20.0086 223.101 20.0528V25.748C222.308 25.353 221.448 25.1551 220.523 25.1551C219.134 25.1551 218.093 25.5666 217.399 26.3897C216.705 27.2128 216.358 28.4142 216.358 29.9941V37.2369H210.375V20.3483Z" fill="white"/>
<path d="M233.449 24.0024L225.681 12.4141H233.68L237.052 18.8339L241.217 12.4141H249.216L240.985 24.0024L250.274 37.2369H242.373L237.382 29.1388L231.531 37.2369H223.696L233.447 24.0024H233.449Z" fill="url(#paint4_linear_1894_62)"/>
<path d="M258.308 45.6645H252.324V20.3483H258.308V22.2246C259.585 20.6227 261.327 19.8217 263.531 19.8217C264.743 19.8217 265.873 20.0574 266.919 20.5297C267.966 21.002 268.875 21.6437 269.647 22.4557C270.418 23.2677 271.019 24.2225 271.448 25.3199C271.878 26.4173 272.093 27.5911 272.093 28.8423C272.093 30.0935 271.878 31.2572 271.448 32.3316C271.019 33.4069 270.424 34.3506 269.663 35.1626C268.903 35.9746 268.005 36.6108 266.969 37.0721C265.933 37.5333 264.809 37.7635 263.598 37.7635C261.482 37.7635 259.719 37.0389 258.309 35.5907V45.6645H258.308ZM265.845 28.8423C265.845 28.3157 265.751 27.8167 265.564 27.3444C265.376 26.873 265.106 26.4615 264.754 26.1098C264.401 25.759 263.988 25.4792 263.515 25.2702C263.04 25.0621 262.528 24.9571 261.977 24.9571C261.426 24.9571 260.953 25.0557 260.49 25.2536C260.026 25.4515 259.624 25.7259 259.283 26.0767C258.941 26.4284 258.666 26.8399 258.457 27.3113C258.247 27.7836 258.142 28.2826 258.142 28.8092C258.142 29.3358 258.241 29.8293 258.44 30.2905C258.639 30.7518 258.913 31.1522 259.266 31.492C259.619 31.8326 260.032 32.107 260.506 32.315C260.98 32.524 261.482 32.6281 262.01 32.6281C262.539 32.6281 263.035 32.5295 263.498 32.3316C263.961 32.1337 264.362 31.8602 264.704 31.5085C265.045 31.1578 265.321 30.7518 265.531 30.2905C265.74 29.8293 265.845 29.3468 265.845 28.8423Z" fill="url(#paint5_linear_1894_62)"/>
<path d="M280.886 29.797C280.886 32.3647 282.098 33.6491 284.522 33.6491C285.822 33.6491 286.802 33.1224 287.463 32.0692H293.249C292.08 35.9323 289.161 37.8629 284.488 37.8629C283.055 37.8629 281.744 37.6493 280.555 37.2212C279.365 36.7931 278.345 36.1845 277.496 35.3937C276.648 34.6038 275.992 33.6601 275.529 32.5627C275.066 31.4653 274.835 30.2371 274.835 28.8755C274.835 27.5138 275.055 26.2037 275.496 25.0732C275.937 23.9426 276.565 22.9823 277.38 22.1924C278.195 21.4025 279.182 20.793 280.338 20.3649C281.496 19.9368 282.801 19.7232 284.255 19.7232C285.71 19.7232 286.977 19.9368 288.123 20.3649C289.269 20.793 290.239 21.4135 291.033 22.2246C291.826 23.0367 292.432 24.03 292.851 25.2039C293.27 26.3786 293.479 27.7007 293.479 29.171V29.7961H280.884L280.886 29.797ZM287.894 26.34C287.695 25.5059 287.288 24.8365 286.671 24.332C286.054 23.8275 285.305 23.5752 284.424 23.5752C283.498 23.5752 282.743 23.8174 282.16 24.2998C281.575 24.7831 281.206 25.4635 281.052 26.3409H287.895L287.894 26.34Z" fill="url(#paint6_linear_1894_62)"/>
<path d="M296.885 20.3483H302.868V23.114C303.507 22.105 304.29 21.3316 305.216 20.793C306.141 20.2554 307.221 19.9865 308.455 19.9865H308.967C309.154 19.9865 309.369 20.0086 309.612 20.0528V25.748C308.818 25.353 307.959 25.1551 307.033 25.1551C305.645 25.1551 304.604 25.5666 303.909 26.3897C303.215 27.2128 302.868 28.4142 302.868 29.9941V37.2369H296.885V20.3483Z" fill="url(#paint7_linear_1894_62)"/>
<path d="M319.595 25.3199V37.2369H313.612V25.3199H311.629V20.3493H313.612V15.2792H319.595V20.3493H323V25.3199H319.595Z" fill="url(#paint8_linear_1894_62)"/>
</g>
<defs>
<linearGradient id="paint0_linear_1894_62" x1="3.41882" y1="54.9889" x2="20.9943" y2="54.9889" gradientUnits="userSpaceOnUse">
<stop stop-color="#FF512F"/>
<stop offset="1" stop-color="#DD2476"/>
</linearGradient>
<linearGradient id="paint1_linear_1894_62" x1="3.51953" y1="30.5943" x2="61.8716" y2="30.5943" gradientUnits="userSpaceOnUse">
<stop stop-color="#FF512F"/>
<stop offset="1" stop-color="#DD2476"/>
</linearGradient>
<linearGradient id="paint2_linear_1894_62" x1="44.8462" y1="5.94928" x2="61.8865" y2="5.94928" gradientUnits="userSpaceOnUse">
<stop stop-color="#FF512F"/>
<stop offset="1" stop-color="#DD2476"/>
</linearGradient>
<linearGradient id="paint3_linear_1894_62" x1="47.1019" y1="45.137" x2="58.28" y2="45.137" gradientUnits="userSpaceOnUse">
<stop stop-color="#FF512F"/>
<stop offset="1" stop-color="#DD2476"/>
</linearGradient>
<linearGradient id="paint4_linear_1894_62" x1="223.697" y1="24.8255" x2="250.275" y2="24.8255" gradientUnits="userSpaceOnUse">
<stop stop-color="#FF512F"/>
<stop offset="1" stop-color="#DD2476"/>
</linearGradient>
<linearGradient id="paint5_linear_1894_62" x1="252.324" y1="32.7431" x2="272.093" y2="32.7431" gradientUnits="userSpaceOnUse">
<stop stop-color="#FF512F"/>
<stop offset="1" stop-color="#DD2476"/>
</linearGradient>
<linearGradient id="paint6_linear_1894_62" x1="274.836" y1="28.7926" x2="293.48" y2="28.7926" gradientUnits="userSpaceOnUse">
<stop stop-color="#FF512F"/>
<stop offset="1" stop-color="#DD2476"/>
</linearGradient>
<linearGradient id="paint7_linear_1894_62" x1="296.885" y1="28.6112" x2="309.612" y2="28.6112" gradientUnits="userSpaceOnUse">
<stop stop-color="#FF512F"/>
<stop offset="1" stop-color="#DD2476"/>
</linearGradient>
<linearGradient id="paint8_linear_1894_62" x1="311.628" y1="26.258" x2="323" y2="26.258" gradientUnits="userSpaceOnUse">
<stop stop-color="#FF512F"/>
<stop offset="1" stop-color="#DD2476"/>
</linearGradient>
<clipPath id="clip0_1894_62">
<rect width="323" height="77" fill="white"/>
</clipPath>
</defs>
</svg>
