<svg width="58" height="58" viewBox="0 0 58 58" fill="none" xmlns="http://www.w3.org/2000/svg">
<g clip-path="url(#clip0_1838_462)">
<path d="M37.8072 21.2901C37.7143 21.1972 37.604 21.1235 37.4826 21.0732C37.3612 21.023 37.2311 20.9971 37.0997 20.9971C36.9683 20.9971 36.8382 21.023 36.7168 21.0732C36.5954 21.1235 36.4851 21.1972 36.3922 21.2901C36.2993 21.383 36.2256 21.4933 36.1753 21.6147C36.125 21.7361 36.0991 21.8662 36.0991 21.9976C36.0991 22.129 36.125 22.2591 36.1753 22.3805C36.2256 22.5019 36.2993 22.6122 36.3922 22.7051C38.0591 24.376 38.9953 26.6399 38.9953 29.0001C38.9953 31.3604 38.0591 33.6242 36.3922 35.2951C36.2045 35.4828 36.0991 35.7373 36.0991 36.0026C36.0991 36.268 36.2045 36.5225 36.3922 36.7101C36.5798 36.8978 36.8343 37.0032 37.0997 37.0032C37.365 37.0032 37.6195 36.8978 37.8072 36.7101C39.849 34.6637 40.9956 31.8909 40.9956 29.0001C40.9956 26.1093 39.849 23.3366 37.8072 21.2901Z" fill="#141414"/>
<path d="M35.1 24.2909C35.0071 24.1977 34.8967 24.1237 34.7752 24.0731C34.6537 24.0225 34.5234 23.9963 34.3918 23.9961C34.2602 23.9959 34.1298 24.0216 34.0081 24.0717C33.8864 24.1219 33.7758 24.1955 33.6825 24.2884C33.5893 24.3813 33.5153 24.4917 33.4647 24.6132C33.4141 24.7347 33.3879 24.865 33.3877 24.9967C33.3875 25.1283 33.4132 25.2587 33.4633 25.3804C33.5135 25.5021 33.5871 25.6127 33.68 25.7059C34.5528 26.58 35.043 27.7647 35.043 28.9999C35.043 30.2351 34.5528 31.4198 33.68 32.2939C33.5871 32.3872 33.5135 32.4978 33.4633 32.6195C33.4132 32.7412 33.3875 32.8716 33.3877 33.0032C33.3879 33.1348 33.4141 33.2651 33.4647 33.3866C33.5153 33.5081 33.5893 33.6185 33.6825 33.7114C33.8708 33.8991 34.126 34.0042 34.3918 34.0037C34.5234 34.0035 34.6537 33.9774 34.7752 33.9268C34.8967 33.8762 35.0071 33.8022 35.1 33.7089C36.3473 32.4592 37.0479 30.7656 37.0479 28.9999C37.0479 27.2342 36.3473 25.5407 35.1 24.2909Z" fill="#141414"/>
<path d="M30.82 17.2001C27.7793 17.7714 25.0747 19.49 23.266 22.0001H22C20.6746 22.0022 19.404 22.5297 18.4668 23.4669C17.5296 24.4041 17.0021 25.6747 17 27.0001V31.0001C17.0021 32.3255 17.5296 33.5961 18.4668 34.5333C19.404 35.4705 20.6746 35.998 22 36.0001H23.266C25.075 38.5099 27.7795 40.2284 30.82 40.8001C30.8796 40.8118 30.9403 40.8175 31.001 40.8171C31.2662 40.8171 31.5206 40.7118 31.7081 40.5242C31.8956 40.3367 32.001 40.0823 32.001 39.8171V18.1861C32.0014 18.0392 31.9694 17.8941 31.9073 17.761C31.8453 17.6279 31.7546 17.5101 31.6419 17.416C31.5292 17.3218 31.3971 17.2537 31.255 17.2164C31.113 17.1791 30.9644 17.1735 30.82 17.2001ZM30 38.5351C27.7944 37.832 25.8979 36.3914 24.629 34.4551C24.5383 34.3156 24.4143 34.201 24.2682 34.1215C24.122 34.0421 23.9584 34.0003 23.792 34.0001H22C21.2044 34.0001 20.4413 33.684 19.8787 33.1214C19.3161 32.5588 19 31.7958 19 31.0001V27.0001C19 26.2045 19.3161 25.4414 19.8787 24.8788C20.4413 24.3162 21.2044 24.0001 22 24.0001H23.8C23.9662 24.0001 24.1297 23.9587 24.2758 23.8796C24.422 23.8005 24.5461 23.6862 24.637 23.5471C25.9033 21.6113 27.7969 20.1701 30 19.4651V38.5351Z" fill="#141414"/>
</g>
<circle cx="29" cy="29" r="28.5" stroke="#141414"/>
<defs>
<clipPath id="clip0_1838_462">
<rect width="24" height="24" fill="white" transform="translate(17 17)"/>
</clipPath>
</defs>
</svg>
