<svg width="58" height="58" viewBox="0 0 58 58" fill="none" xmlns="http://www.w3.org/2000/svg">
<g clip-path="url(#clip0_1894_112)">
<path d="M30.644 17.418C30.416 17.228 30.115 17.15 29.823 17.203C26.822 17.758 24.069 19.505 22.269 21.997H21.998C19.241 21.998 16.998 24.241 16.998 26.998V31.003C16.998 33.76 19.241 36.003 21.998 36.003H22.269C24.071 38.498 26.824 40.246 29.823 40.797C29.883 40.808 29.944 40.814 30.004 40.814C30.236 40.814 30.463 40.733 30.644 40.583C30.872 40.393 31.004 40.111 31.004 39.814V18.187C31.004 17.89 30.873 17.608 30.644 17.418ZM29.004 38.535C26.974 37.889 25.153 36.581 23.891 34.832L23.592 34.417C23.404 34.157 23.103 34.002 22.781 34.002H21.999C20.345 34.002 18.999 32.656 18.999 31.002V26.997C18.999 25.343 20.345 23.997 21.999 23.997H22.781C23.102 23.997 23.404 23.843 23.592 23.582L23.891 23.167C25.152 21.42 26.974 20.113 29.005 19.465V38.533L29.004 38.535ZM40.733 31.293C41.124 31.684 41.124 32.316 40.733 32.707C40.538 32.902 40.282 33 40.026 33C39.77 33 39.514 32.902 39.319 32.707L37.026 30.414L34.733 32.707C34.538 32.902 34.282 33 34.026 33C33.77 33 33.514 32.902 33.319 32.707C32.928 32.316 32.928 31.684 33.319 31.293L35.612 29L33.319 26.707C32.928 26.316 32.928 25.684 33.319 25.293C33.71 24.902 34.342 24.902 34.733 25.293L37.026 27.586L39.319 25.293C39.71 24.902 40.342 24.902 40.733 25.293C41.124 25.684 41.124 26.316 40.733 26.707L38.44 29L40.733 31.293Z" fill="#141414"/>
</g>
<circle cx="29" cy="29" r="28.5" stroke="#141414"/>
<defs>
<clipPath id="clip0_1894_112">
<rect width="24" height="24" fill="white" transform="translate(17 17)"/>
</clipPath>
</defs>
</svg>
